<svg width="50" height="50" viewBox="0 0 713 735" fill="none" xmlns="http://www.w3.org/2000/svg">
<circle cx="295" cy="315" r="152" stroke="black" stroke-width="8"/>
<circle cx="296" cy="314" r="122" stroke="black" stroke-width="15"/>
<path d="M318.55 295.061L497.991 317.173L316.396 340.445L320.494 309.484L320.503 309.418L320.494 309.351L318.55 295.061ZM319.428 309.918L315.37 340.577L298.357 342.757V309.918H319.428ZM298.357 343.765L315.234 341.602L294.51 498.189L273.772 341.505L292.006 343.784V344.011V344.579L292.569 344.507L295.148 344.176L297.795 344.507L298.357 344.577V344.011V343.765ZM268.525 309.484L272.61 340.352L87.1104 317.173L270.457 295.144L268.525 309.351L268.516 309.418L268.525 309.484ZM273.636 340.48L269.591 309.918H292.006V342.776L273.636 340.48ZM293.006 342.901V309.918H297.357V342.885L295.147 343.168L293.006 342.901ZM319.426 308.918H298.357V292.573L317.524 294.935L319.426 308.918ZM297.357 292.449V308.918H293.006V292.434L295.147 292.177L297.357 292.449ZM317.385 293.91L298.357 291.565V291.348V290.784L297.797 290.851L295.148 291.17L292.567 290.852L292.006 290.782V291.348V291.547L271.623 293.996L294.51 125.71L317.385 293.91ZM271.483 295.02L292.006 292.554V308.918H269.593L271.483 295.02Z" fill="#0A0909" stroke="black"/>
<path d="M323.891 93H314.467L278.676 38.2148V93H269.252V21.9062H278.676L314.564 76.9355V21.9062H323.891V93Z" fill="black"/>
<path d="M48.4375 315.139H17.627V340.334H53.418V348H8.25195V276.906H52.9297V284.621H17.627V307.473H48.4375V315.139Z" fill="black"/>
<path d="M543.584 328.588L544.951 337.963L546.953 329.516L561.016 279.906H568.926L582.646 329.516L584.6 338.109L586.113 328.539L597.148 279.906H606.572L589.336 351H580.791L566.143 299.193L565.02 293.773L563.896 299.193L548.711 351H540.166L522.979 279.906H532.354L543.584 328.588Z" fill="black"/>
<path d="M299.23 672.243C297.253 689.162 290.991 702.236 280.444 711.464C269.97 720.62 256.018 725.197 238.586 725.197C219.689 725.197 204.528 718.422 193.103 704.873C181.75 691.323 176.074 673.195 176.074 650.49V635.109C176.074 620.241 178.71 607.167 183.984 595.888C189.331 584.609 196.875 575.966 206.616 569.96C216.357 563.881 227.636 560.842 240.454 560.842C257.446 560.842 271.069 565.603 281.323 575.124C291.577 584.572 297.546 597.683 299.23 614.455H278.027C276.196 601.711 272.204 592.482 266.052 586.77C259.973 581.057 251.44 578.2 240.454 578.2C226.977 578.2 216.394 583.181 208.703 593.142C201.086 603.103 197.277 617.275 197.277 635.659V651.149C197.277 668.508 200.903 682.314 208.154 692.568C215.405 702.822 225.549 707.949 238.586 707.949C250.305 707.949 259.277 705.312 265.502 700.039C271.801 694.692 275.976 685.427 278.027 672.243H299.23ZM445.788 672.243C443.811 689.162 437.548 702.236 427.001 711.464C416.528 720.62 402.575 725.197 385.144 725.197C366.247 725.197 351.086 718.422 339.66 704.873C328.308 691.323 322.631 673.195 322.631 650.49V635.109C322.631 620.241 325.268 607.167 330.542 595.888C335.888 584.609 343.432 575.966 353.173 569.96C362.915 563.881 374.194 560.842 387.011 560.842C404.003 560.842 417.626 565.603 427.88 575.124C438.134 584.572 444.104 597.683 445.788 614.455H424.584C422.753 601.711 418.762 592.482 412.609 586.77C406.53 581.057 397.998 578.2 387.011 578.2C373.535 578.2 362.951 583.181 355.261 593.142C347.644 603.103 343.835 617.275 343.835 635.659V651.149C343.835 668.508 347.46 682.314 354.711 692.568C361.962 702.822 372.106 707.949 385.144 707.949C396.862 707.949 405.834 705.312 412.06 700.039C418.359 694.692 422.534 685.427 424.584 672.243H445.788Z" fill="black"/>
<circle cx="294" cy="315" r="27" fill="#C4C4C4"/>
<circle cx="294" cy="315" r="18" fill="#090808"/>
</svg>
