<svg width="50" height="50" viewBox="0 0 755 688" fill="none" xmlns="http://www.w3.org/2000/svg">
<circle cx="398" cy="273" r="152" stroke="black" stroke-width="8"/>
<circle cx="399" cy="272" r="122" stroke="black" stroke-width="15"/>
<path d="M421.55 253.061L600.991 275.173L419.396 298.445L423.494 267.484L423.503 267.418L423.494 267.351L421.55 253.061ZM422.428 267.918L418.37 298.577L401.357 300.757V267.918H422.428ZM401.357 301.765L418.234 299.602L397.51 456.189L376.772 299.505L395.006 301.784V302.011V302.579L395.569 302.507L398.148 302.176L400.795 302.507L401.357 302.577V302.011V301.765ZM371.525 267.484L375.61 298.352L190.11 275.173L373.457 253.144L371.525 267.351L371.516 267.418L371.525 267.484ZM376.636 298.48L372.591 267.918H395.006V300.776L376.636 298.48ZM396.006 300.901V267.918H400.357V300.885L398.147 301.168L396.006 300.901ZM422.426 266.918H401.357V250.573L420.524 252.935L422.426 266.918ZM400.357 250.449V266.918H396.006V250.434L398.147 250.177L400.357 250.449ZM420.385 251.91L401.357 249.565V249.348V248.784L400.797 248.851L398.148 249.17L395.567 248.852L395.006 248.782V249.348V249.547L374.623 251.996L397.51 83.7103L420.385 251.91ZM374.483 253.02L395.006 250.554V266.918H372.593L374.483 253.02Z" fill="#0A0909" stroke="black"/>
<path d="M394.557 63.0054C392.75 65.5933 390.223 67.5342 386.976 68.8281C383.753 70.0977 379.994 70.7324 375.697 70.7324C371.351 70.7324 367.494 69.7192 364.125 67.6929C360.755 65.6421 358.143 62.7368 356.288 58.9771C354.457 55.2173 353.517 50.8594 353.468 45.9033V41.2524C353.468 33.2202 355.335 26.9946 359.071 22.5757C362.831 18.1567 368.104 15.9473 374.891 15.9473C380.458 15.9473 384.938 17.3755 388.331 20.2319C391.725 23.064 393.8 27.0923 394.557 32.3169H387.525C386.207 25.2612 382.008 21.7334 374.928 21.7334C370.216 21.7334 366.639 23.3936 364.198 26.7139C361.781 30.0098 360.56 34.7949 360.536 41.0693V45.4272C360.536 51.4087 361.903 56.1694 364.637 59.7095C367.372 63.2251 371.07 64.9829 375.733 64.9829C378.37 64.9829 380.677 64.6899 382.655 64.104C384.632 63.5181 386.268 62.5293 387.562 61.1377V49.1626H375.221V43.4497H394.557V63.0054ZM447.291 70H440.223V45.354H413.343V70H406.312V16.6797H413.343V39.6045H440.223V16.6797H447.291V70Z" fill="black"/>
<path d="M44.0234 306H37.4268V282.997H12.3389V306H5.77637V256.234H12.3389V277.631H37.4268V256.234H44.0234V306ZM89.0381 261.635H73.042V306H66.5137V261.635H50.5518V256.234H89.0381V261.635ZM104.897 256.234L121.167 296.84L137.437 256.234H145.947V306H139.385V286.62L140 265.702L123.662 306H118.638L102.334 265.805L102.983 286.62V306H96.4209V256.234H104.897ZM164.131 300.634H187.715V306H157.534V256.234H164.131V300.634Z" fill="black"/>
<path d="M660.41 289.081C659.751 294.721 657.664 299.079 654.148 302.155C650.657 305.207 646.006 306.732 640.195 306.732C633.896 306.732 628.843 304.474 625.034 299.958C621.25 295.441 619.358 289.398 619.358 281.83V276.703C619.358 271.747 620.237 267.389 621.995 263.629C623.777 259.87 626.292 256.989 629.539 254.987C632.786 252.96 636.545 251.947 640.818 251.947C646.482 251.947 651.023 253.534 654.441 256.708C657.859 259.857 659.849 264.228 660.41 269.818H653.342C652.732 265.57 651.401 262.494 649.351 260.59C647.324 258.686 644.48 257.733 640.818 257.733C636.326 257.733 632.798 259.394 630.234 262.714C627.695 266.034 626.426 270.758 626.426 276.886V282.05C626.426 287.836 627.634 292.438 630.051 295.856C632.468 299.274 635.85 300.983 640.195 300.983C644.102 300.983 647.092 300.104 649.167 298.346C651.267 296.564 652.659 293.476 653.342 289.081H660.41ZM685.752 282.233C679.722 280.5 675.327 278.375 672.568 275.861C669.834 273.322 668.467 270.197 668.467 266.486C668.467 262.287 670.139 258.82 673.484 256.085C676.853 253.327 681.223 251.947 686.594 251.947C690.256 251.947 693.516 252.655 696.372 254.071C699.253 255.487 701.475 257.44 703.037 259.931C704.624 262.421 705.417 265.143 705.417 268.097H698.35C698.35 264.875 697.324 262.348 695.273 260.517C693.223 258.661 690.33 257.733 686.594 257.733C683.127 257.733 680.417 258.502 678.464 260.041C676.536 261.554 675.571 263.666 675.571 266.376C675.571 268.549 676.487 270.392 678.318 271.906C680.173 273.395 683.311 274.762 687.729 276.007C692.173 277.252 695.64 278.632 698.13 280.146C700.645 281.635 702.5 283.38 703.696 285.382C704.917 287.384 705.527 289.74 705.527 292.45C705.527 296.771 703.843 300.238 700.474 302.851C697.104 305.438 692.6 306.732 686.96 306.732C683.298 306.732 679.88 306.037 676.707 304.645C673.533 303.229 671.079 301.3 669.346 298.859C667.637 296.417 666.782 293.646 666.782 290.546H673.85C673.85 293.769 675.034 296.32 677.402 298.2C679.795 300.055 682.981 300.983 686.96 300.983C690.671 300.983 693.516 300.226 695.493 298.712C697.471 297.199 698.459 295.136 698.459 292.523C698.459 289.911 697.544 287.897 695.713 286.481C693.882 285.041 690.562 283.625 685.752 282.233ZM730.283 282.233C724.253 280.5 719.858 278.375 717.1 275.861C714.365 273.322 712.998 270.197 712.998 266.486C712.998 262.287 714.67 258.82 718.015 256.085C721.384 253.327 725.754 251.947 731.125 251.947C734.788 251.947 738.047 252.655 740.903 254.071C743.784 255.487 746.006 257.44 747.568 259.931C749.155 262.421 749.949 265.143 749.949 268.097H742.881C742.881 264.875 741.855 262.348 739.805 260.517C737.754 258.661 734.861 257.733 731.125 257.733C727.659 257.733 724.949 258.502 722.996 260.041C721.067 261.554 720.103 263.666 720.103 266.376C720.103 268.549 721.018 270.392 722.849 271.906C724.705 273.395 727.842 274.762 732.261 276.007C736.704 277.252 740.171 278.632 742.661 280.146C745.176 281.635 747.031 283.38 748.228 285.382C749.448 287.384 750.059 289.74 750.059 292.45C750.059 296.771 748.374 300.238 745.005 302.851C741.636 305.438 737.131 306.732 731.492 306.732C727.83 306.732 724.412 306.037 721.238 304.645C718.064 303.229 715.61 301.3 713.877 298.859C712.168 296.417 711.313 293.646 711.313 290.546H718.381C718.381 293.769 719.565 296.32 721.934 298.2C724.326 300.055 727.512 300.983 731.492 300.983C735.203 300.983 738.047 300.226 740.024 298.712C742.002 297.199 742.991 295.136 742.991 292.523C742.991 289.911 742.075 287.897 740.244 286.481C738.413 285.041 735.093 283.625 730.283 282.233Z" fill="black"/>
<path d="M260.02 607.891H200.449L187.07 645H167.734L222.031 502.812H238.438L292.832 645H273.594L260.02 607.891ZM206.113 592.461H254.453L230.234 525.957L206.113 592.461ZM366.66 645H348.496V524.59L312.07 537.969V521.562L363.828 502.129H366.66V645ZM478.965 645H460.801V524.59L424.375 537.969V521.562L476.133 502.129H478.965V645ZM568.32 618.535L592.93 539.336H612.266L569.785 661.309C563.21 678.887 552.76 687.676 538.438 687.676L535.02 687.383L528.281 686.113V671.465L533.164 671.855C539.284 671.855 544.036 670.618 547.422 668.145C550.872 665.671 553.704 661.146 555.918 654.57L559.922 643.828L522.227 539.336H541.953L568.32 618.535Z" fill="black"/>
<circle cx="397" cy="273" r="27" fill="#C4C4C4"/>
<circle cx="397" cy="273" r="18" fill="#090808"/>
</svg>
