<svg width="50" height="50" viewBox="0 0 665 735" fill="none" xmlns="http://www.w3.org/2000/svg">
<circle cx="295" cy="315" r="152" stroke="black" stroke-width="8"/>
<circle cx="296" cy="314" r="122" stroke="black" stroke-width="15"/>
<path d="M318.55 295.061L497.991 317.173L316.396 340.445L320.494 309.484L320.503 309.418L320.494 309.351L318.55 295.061ZM319.428 309.918L315.37 340.577L298.357 342.757V309.918H319.428ZM298.357 343.765L315.234 341.602L294.51 498.189L273.772 341.505L292.006 343.784V344.011V344.579L292.569 344.507L295.148 344.176L297.795 344.507L298.357 344.577V344.011V343.765ZM268.525 309.484L272.61 340.352L87.1104 317.173L270.457 295.144L268.525 309.351L268.516 309.418L268.525 309.484ZM273.636 340.48L269.591 309.918H292.006V342.776L273.636 340.48ZM293.006 342.901V309.918H297.357V342.885L295.147 343.168L293.006 342.901ZM319.426 308.918H298.357V292.573L317.524 294.935L319.426 308.918ZM297.357 292.449V308.918H293.006V292.434L295.147 292.177L297.357 292.449ZM317.385 293.91L298.357 291.565V291.348V290.784L297.797 290.851L295.148 291.17L292.567 290.852L292.006 290.782V291.348V291.547L271.623 293.996L294.51 125.71L317.385 293.91ZM271.483 295.02L292.006 292.554V308.918H269.593L271.483 295.02Z" fill="#0A0909" stroke="black"/>
<path d="M323.891 93H314.467L278.676 38.2148V93H269.252V21.9062H278.676L314.564 76.9355V21.9062H323.891V93Z" fill="black"/>
<path d="M48.4375 315.139H17.627V340.334H53.418V348H8.25195V276.906H52.9297V284.621H17.627V307.473H48.4375V315.139Z" fill="black"/>
<path d="M543.584 328.588L544.951 337.963L546.953 329.516L561.016 279.906H568.926L582.646 329.516L584.6 338.109L586.113 328.539L597.148 279.906H606.572L589.336 351H580.791L566.143 299.193L565.02 293.773L563.896 299.193L548.711 351H540.166L522.979 279.906H532.354L543.584 328.588Z" fill="black"/>
<path d="M236.094 653.883C234.336 668.922 228.77 680.543 219.395 688.746C210.085 696.884 197.682 700.953 182.188 700.953C165.391 700.953 151.914 694.931 141.758 682.887C131.667 670.842 126.621 654.729 126.621 634.547V620.875C126.621 607.659 128.965 596.038 133.652 586.012C138.405 575.986 145.111 568.303 153.77 562.965C162.428 557.561 172.454 554.859 183.848 554.859C198.952 554.859 211.061 559.091 220.176 567.555C229.29 575.953 234.596 587.607 236.094 602.516H217.246C215.618 591.188 212.07 582.984 206.602 577.906C201.198 572.828 193.613 570.289 183.848 570.289C171.868 570.289 162.461 574.716 155.625 583.57C148.854 592.424 145.469 605.022 145.469 621.363V635.133C145.469 650.562 148.691 662.835 155.137 671.949C161.582 681.064 170.599 685.621 182.188 685.621C192.604 685.621 200.579 683.277 206.113 678.59C211.712 673.837 215.423 665.602 217.246 653.883H236.094ZM303.672 635.621C287.591 630.999 275.872 625.335 268.516 618.629C261.224 611.858 257.578 603.525 257.578 593.629C257.578 582.431 262.038 573.186 270.957 565.895C279.941 558.538 291.595 554.859 305.918 554.859C315.684 554.859 324.375 556.747 331.992 560.523C339.674 564.299 345.599 569.508 349.766 576.148C353.997 582.789 356.113 590.048 356.113 597.926H337.266C337.266 589.332 334.531 582.594 329.062 577.711C323.594 572.763 315.879 570.289 305.918 570.289C296.673 570.289 289.447 572.34 284.238 576.441C279.095 580.478 276.523 586.109 276.523 593.336C276.523 599.13 278.965 604.046 283.848 608.082C288.796 612.053 297.161 615.699 308.945 619.02C320.794 622.34 330.039 626.018 336.68 630.055C343.385 634.026 348.333 638.681 351.523 644.02C354.779 649.358 356.406 655.641 356.406 662.867C356.406 674.391 351.914 683.635 342.93 690.602C333.945 697.503 321.934 700.953 306.895 700.953C297.129 700.953 288.014 699.098 279.551 695.387C271.087 691.611 264.544 686.467 259.922 679.957C255.365 673.447 253.086 666.057 253.086 657.789H271.934C271.934 666.383 275.091 673.186 281.406 678.199C287.786 683.147 296.283 685.621 306.895 685.621C316.79 685.621 324.375 683.603 329.648 679.566C334.922 675.53 337.559 670.029 337.559 663.062C337.559 656.096 335.117 650.725 330.234 646.949C325.352 643.108 316.497 639.332 303.672 635.621ZM422.422 635.621C406.341 630.999 394.622 625.335 387.266 618.629C379.974 611.858 376.328 603.525 376.328 593.629C376.328 582.431 380.788 573.186 389.707 565.895C398.691 558.538 410.345 554.859 424.668 554.859C434.434 554.859 443.125 556.747 450.742 560.523C458.424 564.299 464.349 569.508 468.516 576.148C472.747 582.789 474.863 590.048 474.863 597.926H456.016C456.016 589.332 453.281 582.594 447.812 577.711C442.344 572.763 434.629 570.289 424.668 570.289C415.423 570.289 408.197 572.34 402.988 576.441C397.845 580.478 395.273 586.109 395.273 593.336C395.273 599.13 397.715 604.046 402.598 608.082C407.546 612.053 415.911 615.699 427.695 619.02C439.544 622.34 448.789 626.018 455.43 630.055C462.135 634.026 467.083 638.681 470.273 644.02C473.529 649.358 475.156 655.641 475.156 662.867C475.156 674.391 470.664 683.635 461.68 690.602C452.695 697.503 440.684 700.953 425.645 700.953C415.879 700.953 406.764 699.098 398.301 695.387C389.837 691.611 383.294 686.467 378.672 679.957C374.115 673.447 371.836 666.057 371.836 657.789H390.684C390.684 666.383 393.841 673.186 400.156 678.199C406.536 683.147 415.033 685.621 425.645 685.621C435.54 685.621 443.125 683.603 448.398 679.566C453.672 675.53 456.309 670.029 456.309 663.062C456.309 656.096 453.867 650.725 448.984 646.949C444.102 643.108 435.247 639.332 422.422 635.621Z" fill="black"/>
<circle cx="294" cy="315" r="27" fill="#C4C4C4"/>
<circle cx="294" cy="315" r="18" fill="#090808"/>
</svg>
