<svg width="50" height="50" viewBox="0 0 596 742" fill="none" xmlns="http://www.w3.org/2000/svg">
<circle cx="235" cy="315" r="152" stroke="black" stroke-width="8"/>
<circle cx="236" cy="314" r="122" stroke="black" stroke-width="15"/>
<path d="M258.55 295.061L437.991 317.173L256.396 340.445L260.494 309.484L260.503 309.418L260.494 309.351L258.55 295.061ZM259.428 309.918L255.37 340.577L238.357 342.757V309.918H259.428ZM238.357 343.765L255.234 341.602L234.51 498.189L213.772 341.505L232.006 343.784V344.011V344.579L232.569 344.507L235.148 344.176L237.795 344.507L238.357 344.577V344.011V343.765ZM208.525 309.484L212.61 340.352L27.1104 317.173L210.457 295.144L208.525 309.351L208.516 309.418L208.525 309.484ZM213.636 340.48L209.591 309.918H232.006V342.776L213.636 340.48ZM233.006 342.901V309.918H237.357V342.885L235.147 343.168L233.006 342.901ZM259.426 308.918H238.357V292.573L257.524 294.935L259.426 308.918ZM237.357 292.449V308.918H233.006V292.434L235.147 292.177L237.357 292.449ZM257.385 293.91L238.357 291.565V291.348V290.784L237.797 290.851L235.148 291.17L232.567 290.852L232.006 290.782V291.348V291.547L211.623 293.996L234.51 125.71L257.385 293.91ZM211.483 295.02L232.006 292.554V308.918H209.593L211.483 295.02Z" fill="#0A0909" stroke="black"/>
<path d="M263.891 93H254.467L218.676 38.2148V93H209.252V21.9062H218.676L254.564 76.9355V21.9062H263.891V93Z" fill="black"/>
<path d="M508.438 318.139H477.627V343.334H513.418V351H468.252V279.906H512.93V287.621H477.627V310.473H508.438V318.139Z" fill="black"/>
<path d="M95.0195 661.891H35.4492L22.0703 699H2.73438L57.0312 556.812H73.4375L127.832 699H108.594L95.0195 661.891ZM41.1133 646.461H89.4531L65.2344 579.957L41.1133 646.461ZM201.66 699H183.496V578.59L147.07 591.969V575.562L198.828 556.129H201.66V699ZM313.965 699H295.801V578.59L259.375 591.969V575.562L311.133 556.129H313.965V699ZM403.32 672.535L427.93 593.336H447.266L404.785 715.309C398.21 732.887 387.76 741.676 373.438 741.676L370.02 741.383L363.281 740.113V725.465L368.164 725.855C374.284 725.855 379.036 724.618 382.422 722.145C385.872 719.671 388.704 715.146 390.918 708.57L394.922 697.828L357.227 593.336H376.953L403.32 672.535Z" fill="black"/>
<circle cx="234" cy="315" r="27" fill="#C4C4C4"/>
<circle cx="234" cy="315" r="18" fill="#090808"/>
</svg>
