<svg width="50" height="50" viewBox="0 0 755 681" fill="none" xmlns="http://www.w3.org/2000/svg">
<circle cx="398" cy="273" r="152" stroke="black" stroke-width="8"/>
<circle cx="399" cy="272" r="122" stroke="black" stroke-width="15"/>
<path d="M421.55 253.061L600.991 275.173L419.396 298.445L423.494 267.484L423.503 267.418L423.494 267.351L421.55 253.061ZM422.428 267.918L418.37 298.577L401.357 300.757V267.918H422.428ZM401.357 301.765L418.234 299.602L397.51 456.189L376.772 299.505L395.006 301.784V302.011V302.579L395.569 302.507L398.148 302.176L400.795 302.507L401.357 302.577V302.011V301.765ZM371.525 267.484L375.61 298.352L190.11 275.173L373.457 253.144L371.525 267.351L371.516 267.418L371.525 267.484ZM376.636 298.48L372.591 267.918H395.006V300.776L376.636 298.48ZM396.006 300.901V267.918H400.357V300.885L398.147 301.168L396.006 300.901ZM422.426 266.918H401.357V250.573L420.524 252.935L422.426 266.918ZM400.357 250.449V266.918H396.006V250.434L398.147 250.177L400.357 250.449ZM420.385 251.91L401.357 249.565V249.348V248.784L400.797 248.851L398.148 249.17L395.567 248.852L395.006 248.782V249.348V249.547L374.623 251.996L397.51 83.7103L420.385 251.91ZM374.483 253.02L395.006 250.554V266.918H372.593L374.483 253.02Z" fill="#0A0909" stroke="black"/>
<path d="M353.168 70H346.1V45.354H319.22V70H312.189V16.6797H319.22V39.6045H346.1V16.6797H353.168V70ZM401.398 22.4658H384.259V70H377.265V22.4658H360.163V16.6797H401.398V22.4658ZM418.39 16.6797L435.822 60.1855L453.253 16.6797H462.372V70H455.341V49.2358L456 26.8237L438.495 70H433.112L415.644 26.9336L416.339 49.2358V70H409.308V16.6797H418.39ZM481.854 64.2505H507.123V70H474.787V16.6797H481.854V64.2505Z" fill="black"/>
<path d="M33.2568 289.012H12.4072L7.72461 302H0.957031L19.9609 252.234H25.7031L44.7412 302H38.0078L33.2568 289.012ZM14.3896 283.611H31.3086L22.832 260.335L14.3896 283.611ZM70.5811 302H64.2236V259.856L51.4746 264.539V258.797L69.5898 251.995H70.5811V302ZM109.888 302H103.53V259.856L90.7812 264.539V258.797L108.896 251.995H109.888V302ZM141.162 292.737L149.775 265.018H156.543L141.675 307.708C139.373 313.86 135.716 316.937 130.703 316.937L129.507 316.834L127.148 316.39V311.263L128.857 311.399C130.999 311.399 132.663 310.966 133.848 310.101C135.055 309.235 136.047 307.651 136.821 305.35L138.223 301.59L125.029 265.018H131.934L141.162 292.737Z" fill="black"/>
<path d="M660.557 299.005C658.75 301.593 656.223 303.534 652.976 304.828C649.753 306.098 645.994 306.732 641.697 306.732C637.351 306.732 633.494 305.719 630.125 303.693C626.755 301.642 624.143 298.737 622.288 294.977C620.457 291.217 619.517 286.859 619.468 281.903V277.252C619.468 269.22 621.335 262.995 625.071 258.576C628.831 254.157 634.104 251.947 640.891 251.947C646.458 251.947 650.938 253.375 654.331 256.232C657.725 259.064 659.8 263.092 660.557 268.317H653.525C652.207 261.261 648.008 257.733 640.928 257.733C636.216 257.733 632.639 259.394 630.198 262.714C627.781 266.01 626.56 270.795 626.536 277.069V281.427C626.536 287.409 627.903 292.169 630.637 295.709C633.372 299.225 637.07 300.983 641.733 300.983C644.37 300.983 646.677 300.69 648.655 300.104C650.632 299.518 652.268 298.529 653.562 297.138V285.163H641.221V279.45H660.557V299.005ZM713.291 306H706.223V281.354H679.343V306H672.312V252.68H679.343V275.604H706.223V252.68H713.291V306Z" fill="black"/>
<path d="M324.094 599.883C322.336 614.922 316.77 626.543 307.395 634.746C298.085 642.884 285.682 646.953 270.188 646.953C253.391 646.953 239.914 640.931 229.758 628.887C219.667 616.842 214.621 600.729 214.621 580.547V566.875C214.621 553.659 216.965 542.038 221.652 532.012C226.405 521.986 233.111 514.303 241.77 508.965C250.428 503.561 260.454 500.859 271.848 500.859C286.952 500.859 299.061 505.091 308.176 513.555C317.29 521.953 322.596 533.607 324.094 548.516H305.246C303.618 537.188 300.07 528.984 294.602 523.906C289.198 518.828 281.613 516.289 271.848 516.289C259.868 516.289 250.461 520.716 243.625 529.57C236.854 538.424 233.469 551.022 233.469 567.363V581.133C233.469 596.562 236.691 608.835 243.137 617.949C249.582 627.064 258.599 631.621 270.188 631.621C280.604 631.621 288.579 629.277 294.113 624.59C299.712 619.837 303.423 611.602 305.246 599.883H324.094ZM391.672 581.621C375.591 576.999 363.872 571.335 356.516 564.629C349.224 557.858 345.578 549.525 345.578 539.629C345.578 528.431 350.038 519.186 358.957 511.895C367.941 504.538 379.595 500.859 393.918 500.859C403.684 500.859 412.375 502.747 419.992 506.523C427.674 510.299 433.599 515.508 437.766 522.148C441.997 528.789 444.113 536.048 444.113 543.926H425.266C425.266 535.332 422.531 528.594 417.062 523.711C411.594 518.763 403.879 516.289 393.918 516.289C384.673 516.289 377.447 518.34 372.238 522.441C367.095 526.478 364.523 532.109 364.523 539.336C364.523 545.13 366.965 550.046 371.848 554.082C376.796 558.053 385.161 561.699 396.945 565.02C408.794 568.34 418.039 572.018 424.68 576.055C431.385 580.026 436.333 584.681 439.523 590.02C442.779 595.358 444.406 601.641 444.406 608.867C444.406 620.391 439.914 629.635 430.93 636.602C421.945 643.503 409.934 646.953 394.895 646.953C385.129 646.953 376.014 645.098 367.551 641.387C359.087 637.611 352.544 632.467 347.922 625.957C343.365 619.447 341.086 612.057 341.086 603.789H359.934C359.934 612.383 363.091 619.186 369.406 624.199C375.786 629.147 384.283 631.621 394.895 631.621C404.79 631.621 412.375 629.603 417.648 625.566C422.922 621.53 425.559 616.029 425.559 609.062C425.559 602.096 423.117 596.725 418.234 592.949C413.352 589.108 404.497 585.332 391.672 581.621ZM510.422 581.621C494.341 576.999 482.622 571.335 475.266 564.629C467.974 557.858 464.328 549.525 464.328 539.629C464.328 528.431 468.788 519.186 477.707 511.895C486.691 504.538 498.345 500.859 512.668 500.859C522.434 500.859 531.125 502.747 538.742 506.523C546.424 510.299 552.349 515.508 556.516 522.148C560.747 528.789 562.863 536.048 562.863 543.926H544.016C544.016 535.332 541.281 528.594 535.812 523.711C530.344 518.763 522.629 516.289 512.668 516.289C503.423 516.289 496.197 518.34 490.988 522.441C485.845 526.478 483.273 532.109 483.273 539.336C483.273 545.13 485.715 550.046 490.598 554.082C495.546 558.053 503.911 561.699 515.695 565.02C527.544 568.34 536.789 572.018 543.43 576.055C550.135 580.026 555.083 584.681 558.273 590.02C561.529 595.358 563.156 601.641 563.156 608.867C563.156 620.391 558.664 629.635 549.68 636.602C540.695 643.503 528.684 646.953 513.645 646.953C503.879 646.953 494.764 645.098 486.301 641.387C477.837 637.611 471.294 632.467 466.672 625.957C462.115 619.447 459.836 612.057 459.836 603.789H478.684C478.684 612.383 481.841 619.186 488.156 624.199C494.536 629.147 503.033 631.621 513.645 631.621C523.54 631.621 531.125 629.603 536.398 625.566C541.672 621.53 544.309 616.029 544.309 609.062C544.309 602.096 541.867 596.725 536.984 592.949C532.102 589.108 523.247 585.332 510.422 581.621Z" fill="black"/>
<circle cx="397" cy="273" r="27" fill="#C4C4C4"/>
<circle cx="397" cy="273" r="18" fill="#090808"/>
</svg>
