<svg width="50" height="50" viewBox="0 0 713 735" fill="none" xmlns="http://www.w3.org/2000/svg">
<circle cx="295" cy="315" r="152" stroke="black" stroke-width="8"/>
<circle cx="296" cy="314" r="122" stroke="black" stroke-width="15"/>
<path d="M318.55 295.061L497.991 317.173L316.396 340.445L320.494 309.484L320.503 309.418L320.494 309.351L318.55 295.061ZM319.428 309.918L315.37 340.577L298.357 342.757V309.918H319.428ZM298.357 343.765L315.234 341.602L294.51 498.189L273.772 341.505L292.006 343.784V344.011V344.579L292.569 344.507L295.148 344.176L297.795 344.507L298.357 344.577V344.011V343.765ZM268.525 309.484L272.61 340.352L87.1104 317.173L270.457 295.144L268.525 309.351L268.516 309.418L268.525 309.484ZM273.636 340.48L269.591 309.918H292.006V342.776L273.636 340.48ZM293.006 342.901V309.918H297.357V342.885L295.147 343.168L293.006 342.901ZM319.426 308.918H298.357V292.573L317.524 294.935L319.426 308.918ZM297.357 292.449V308.918H293.006V292.434L295.147 292.177L297.357 292.449ZM317.385 293.91L298.357 291.565V291.348V290.784L297.797 290.851L295.148 291.17L292.567 290.852L292.006 290.782V291.348V291.547L271.623 293.996L294.51 125.71L317.385 293.91ZM271.483 295.02L292.006 292.554V308.918H269.593L271.483 295.02Z" fill="#0A0909" stroke="black"/>
<path d="M323.891 93H314.467L278.676 38.2148V93H269.252V21.9062H278.676L314.564 76.9355V21.9062H323.891V93Z" fill="black"/>
<path d="M48.4375 315.139H17.627V340.334H53.418V348H8.25195V276.906H52.9297V284.621H17.627V307.473H48.4375V315.139Z" fill="black"/>
<path d="M543.584 328.588L544.951 337.963L546.953 329.516L561.016 279.906H568.926L582.646 329.516L584.6 338.109L586.113 328.539L597.148 279.906H606.572L589.336 351H580.791L566.143 299.193L565.02 293.773L563.896 299.193L548.711 351H540.166L522.979 279.906H532.354L543.584 328.588Z" fill="black"/>
<path d="M284.484 680.348C279.667 687.249 272.928 692.424 264.27 695.875C255.676 699.26 245.65 700.953 234.191 700.953C222.603 700.953 212.316 698.251 203.332 692.848C194.348 687.379 187.382 679.632 182.434 669.605C177.551 659.579 175.044 647.958 174.914 634.742V622.34C174.914 600.921 179.895 584.319 189.855 572.535C199.882 560.751 213.944 554.859 232.043 554.859C246.887 554.859 258.833 558.668 267.883 566.285C276.932 573.837 282.466 584.579 284.484 598.512H265.734C262.219 579.697 251.021 570.289 232.141 570.289C219.576 570.289 210.038 574.716 203.527 583.57C197.082 592.359 193.827 605.12 193.762 621.852V633.473C193.762 649.423 197.408 662.118 204.699 671.559C211.991 680.934 221.854 685.621 234.289 685.621C241.32 685.621 247.473 684.84 252.746 683.277C258.02 681.715 262.382 679.078 265.832 675.367V643.434H232.922V628.199H284.484V680.348ZM425.109 699H406.262V633.277H334.582V699H315.832V556.812H334.582V617.945H406.262V556.812H425.109V699Z" fill="black"/>
<circle cx="294" cy="315" r="27" fill="#C4C4C4"/>
<circle cx="294" cy="315" r="18" fill="#090808"/>
</svg>
