<svg width="50" height="50" viewBox="0 0 656 735" fill="none" xmlns="http://www.w3.org/2000/svg">
<circle cx="295" cy="315" r="152" stroke="black" stroke-width="8"/>
<circle cx="296" cy="314" r="122" stroke="black" stroke-width="15"/>
<path d="M318.55 295.061L497.991 317.173L316.396 340.445L320.494 309.484L320.503 309.418L320.494 309.351L318.55 295.061ZM319.428 309.918L315.37 340.577L298.357 342.757V309.918H319.428ZM298.357 343.765L315.234 341.602L294.51 498.189L273.772 341.505L292.006 343.784V344.011V344.579L292.569 344.507L295.148 344.176L297.795 344.507L298.357 344.577V344.011V343.765ZM268.525 309.484L272.61 340.352L87.1104 317.173L270.457 295.144L268.525 309.351L268.516 309.418L268.525 309.484ZM273.636 340.48L269.591 309.918H292.006V342.776L273.636 340.48ZM293.006 342.901V309.918H297.357V342.885L295.147 343.168L293.006 342.901ZM319.426 308.918H298.357V292.573L317.524 294.935L319.426 308.918ZM297.357 292.449V308.918H293.006V292.434L295.147 292.177L297.357 292.449ZM317.385 293.91L298.357 291.565V291.348V290.784L297.797 290.851L295.148 291.17L292.567 290.852L292.006 290.782V291.348V291.547L271.623 293.996L294.51 125.71L317.385 293.91ZM271.483 295.02L292.006 292.554V308.918H269.593L271.483 295.02Z" fill="#0A0909" stroke="black"/>
<path d="M323.891 93H314.467L278.676 38.2148V93H269.252V21.9062H278.676L314.564 76.9355V21.9062H323.891V93Z" fill="black"/>
<path d="M23.584 325.588L24.9512 334.963L26.9531 326.516L41.0156 276.906H48.9258L62.6465 326.516L64.5996 335.109L66.1133 325.539L77.1484 276.906H86.5723L69.3359 348H60.791L46.1426 296.193L45.0195 290.773L43.8965 296.193L28.7109 348H20.166L2.97852 276.906H12.3535L23.584 325.588Z" fill="black"/>
<path d="M568.438 318.139H537.627V343.334H573.418V351H528.252V279.906H572.93V287.621H537.627V310.473H568.438V318.139Z" fill="black"/>
<path d="M165.781 699H146.934V633.277H75.2539V699H56.5039V556.812H75.2539V617.945H146.934V556.812H165.781V699ZM294.395 572.242H248.691V699H230.039V572.242H184.434V556.812H294.395V572.242ZM339.707 556.812L386.191 672.828L432.676 556.812H456.992V699H438.242V643.629L440 583.863L393.32 699H378.965L332.383 584.156L334.238 643.629V699H315.488V556.812H339.707ZM508.945 683.668H576.328V699H490.098V556.812H508.945V683.668Z" fill="black"/>
<circle cx="294" cy="315" r="27" fill="#C4C4C4"/>
<circle cx="294" cy="315" r="18" fill="#090808"/>
</svg>
