<svg width="50" height="50" viewBox="0 0 779 680" fill="none" xmlns="http://www.w3.org/2000/svg">
<circle cx="330" cy="273" r="152" stroke="black" stroke-width="8"/>
<circle cx="331" cy="272" r="122" stroke="black" stroke-width="15"/>
<path d="M353.55 253.061L532.991 275.173L351.396 298.445L355.494 267.484L355.503 267.418L355.494 267.351L353.55 253.061ZM354.428 267.918L350.37 298.577L333.357 300.757V267.918H354.428ZM333.357 301.765L350.234 299.602L329.51 456.189L308.772 299.505L327.006 301.784V302.011V302.579L327.569 302.507L330.148 302.176L332.795 302.507L333.357 302.577V302.011V301.765ZM303.525 267.484L307.61 298.352L122.11 275.173L305.457 253.144L303.525 267.351L303.516 267.418L303.525 267.484ZM308.636 298.48L304.591 267.918H327.006V300.776L308.636 298.48ZM328.006 300.901V267.918H332.357V300.885L330.147 301.168L328.006 300.901ZM354.426 266.918H333.357V250.573L352.524 252.935L354.426 266.918ZM332.357 250.449V266.918H328.006V250.434L330.147 250.177L332.357 250.449ZM352.385 251.91L333.357 249.565V249.348V248.784L332.797 248.851L330.148 249.17L327.567 248.852L327.006 248.782V249.348V249.547L306.623 251.996L329.51 83.7103L352.385 251.91ZM306.483 253.02L327.006 250.554V266.918H304.593L306.483 253.02Z" fill="#0A0909" stroke="black"/>
<path d="M305.41 53.0811C304.751 58.7207 302.664 63.0786 299.148 66.1548C295.657 69.2065 291.006 70.7324 285.195 70.7324C278.896 70.7324 273.843 68.4741 270.034 63.9575C266.25 59.4409 264.358 53.3984 264.358 45.8301V40.7031C264.358 35.7471 265.237 31.3892 266.995 27.6294C268.777 23.8696 271.292 20.9888 274.539 18.9868C277.786 16.9604 281.545 15.9473 285.818 15.9473C291.482 15.9473 296.023 17.5342 299.441 20.708C302.859 23.8574 304.849 28.2275 305.41 33.8184H298.342C297.732 29.5703 296.401 26.4941 294.351 24.5898C292.324 22.6855 289.48 21.7334 285.818 21.7334C281.326 21.7334 277.798 23.3936 275.234 26.7139C272.695 30.0342 271.426 34.7583 271.426 40.8862V46.0498C271.426 51.8359 272.634 56.438 275.051 59.856C277.468 63.2739 280.85 64.9829 285.195 64.9829C289.102 64.9829 292.092 64.104 294.167 62.3462C296.267 60.564 297.659 57.4756 298.342 53.0811H305.41ZM330.752 46.2329C324.722 44.4995 320.327 42.3755 317.568 39.8608C314.834 37.3218 313.467 34.1968 313.467 30.4858C313.467 26.2866 315.139 22.8198 318.484 20.0854C321.853 17.3267 326.223 15.9473 331.594 15.9473C335.256 15.9473 338.516 16.6553 341.372 18.0713C344.253 19.4873 346.475 21.4404 348.037 23.9307C349.624 26.4209 350.417 29.1431 350.417 32.0972H343.35C343.35 28.8745 342.324 26.3477 340.273 24.5166C338.223 22.6611 335.33 21.7334 331.594 21.7334C328.127 21.7334 325.417 22.5024 323.464 24.0405C321.536 25.5542 320.571 27.666 320.571 30.376C320.571 32.5488 321.487 34.3921 323.318 35.9058C325.173 37.395 328.311 38.7622 332.729 40.0073C337.173 41.2524 340.64 42.6318 343.13 44.1455C345.645 45.6348 347.5 47.3804 348.696 49.3823C349.917 51.3843 350.527 53.7402 350.527 56.4502C350.527 60.7715 348.843 64.2383 345.474 66.8506C342.104 69.4385 337.6 70.7324 331.96 70.7324C328.298 70.7324 324.88 70.0366 321.707 68.645C318.533 67.229 316.079 65.3003 314.346 62.8589C312.637 60.4175 311.782 57.6465 311.782 54.5459H318.85C318.85 57.7686 320.034 60.3198 322.402 62.1997C324.795 64.0552 327.981 64.9829 331.96 64.9829C335.671 64.9829 338.516 64.2261 340.493 62.7124C342.471 61.1987 343.459 59.1357 343.459 56.5234C343.459 53.9111 342.544 51.897 340.713 50.481C338.882 49.0405 335.562 47.6245 330.752 46.2329ZM375.283 46.2329C369.253 44.4995 364.858 42.3755 362.1 39.8608C359.365 37.3218 357.998 34.1968 357.998 30.4858C357.998 26.2866 359.67 22.8198 363.015 20.0854C366.384 17.3267 370.754 15.9473 376.125 15.9473C379.788 15.9473 383.047 16.6553 385.903 18.0713C388.784 19.4873 391.006 21.4404 392.568 23.9307C394.155 26.4209 394.949 29.1431 394.949 32.0972H387.881C387.881 28.8745 386.855 26.3477 384.805 24.5166C382.754 22.6611 379.861 21.7334 376.125 21.7334C372.659 21.7334 369.949 22.5024 367.996 24.0405C366.067 25.5542 365.103 27.666 365.103 30.376C365.103 32.5488 366.018 34.3921 367.849 35.9058C369.705 37.395 372.842 38.7622 377.261 40.0073C381.704 41.2524 385.171 42.6318 387.661 44.1455C390.176 45.6348 392.031 47.3804 393.228 49.3823C394.448 51.3843 395.059 53.7402 395.059 56.4502C395.059 60.7715 393.374 64.2383 390.005 66.8506C386.636 69.4385 382.131 70.7324 376.492 70.7324C372.83 70.7324 369.412 70.0366 366.238 68.645C363.064 67.229 360.61 65.3003 358.877 62.8589C357.168 60.4175 356.313 57.6465 356.313 54.5459H363.381C363.381 57.7686 364.565 60.3198 366.934 62.1997C369.326 64.0552 372.512 64.9829 376.492 64.9829C380.203 64.9829 383.047 64.2261 385.024 62.7124C387.002 61.1987 387.991 59.1357 387.991 56.5234C387.991 53.9111 387.075 51.897 385.244 50.481C383.413 49.0405 380.093 47.6245 375.283 46.2329Z" fill="black"/>
<path d="M42.5195 295.472C40.8333 297.887 38.4749 299.699 35.4443 300.906C32.4365 302.091 28.9274 302.684 24.917 302.684C20.861 302.684 17.2607 301.738 14.1162 299.847C10.9717 297.933 8.53353 295.221 6.80176 291.712C5.09277 288.203 4.21549 284.135 4.16992 279.51V275.169C4.16992 267.672 5.91309 261.862 9.39941 257.737C12.9085 253.613 17.8304 251.551 24.165 251.551C29.3604 251.551 33.5417 252.884 36.709 255.55C39.8763 258.193 41.8132 261.953 42.5195 266.829H35.957C34.7266 260.244 30.8073 256.951 24.1992 256.951C19.8014 256.951 16.4632 258.501 14.1846 261.6C11.9287 264.676 10.7894 269.142 10.7666 274.998V279.065C10.7666 284.648 12.0426 289.091 14.5947 292.396C17.1468 295.677 20.599 297.317 24.9512 297.317C27.4121 297.317 29.5654 297.044 31.4111 296.497C33.2568 295.95 34.7835 295.027 35.9912 293.729V282.552H24.4727V277.22H42.5195V295.472ZM91.7383 302H85.1416V278.997H60.0537V302H53.4912V252.234H60.0537V273.631H85.1416V252.234H91.7383V302Z" fill="black"/>
<path d="M584.632 292.084H562.293L557.276 306H550.025L570.387 252.68H576.539L596.937 306H589.723L584.632 292.084ZM564.417 286.298H582.545L573.463 261.359L564.417 286.298ZM624.623 306H617.811V260.846L604.151 265.863V259.711L623.561 252.423H624.623V306ZM666.737 306H659.925V260.846L646.266 265.863V259.711L665.675 252.423H666.737V306ZM700.245 296.076L709.474 266.376H716.725L700.794 312.116C698.329 318.708 694.41 322.003 689.039 322.003L687.757 321.894L685.23 321.417V315.924L687.062 316.071C689.356 316.071 691.139 315.607 692.408 314.679C693.702 313.751 694.764 312.055 695.594 309.589L697.096 305.561L682.96 266.376H690.357L700.245 296.076Z" fill="black"/>
<path d="M320.094 598.883C318.336 613.922 312.77 625.543 303.395 633.746C294.085 641.884 281.682 645.953 266.188 645.953C249.391 645.953 235.914 639.931 225.758 627.887C215.667 615.842 210.621 599.729 210.621 579.547V565.875C210.621 552.659 212.965 541.038 217.652 531.012C222.405 520.986 229.111 513.303 237.77 507.965C246.428 502.561 256.454 499.859 267.848 499.859C282.952 499.859 295.061 504.091 304.176 512.555C313.29 520.953 318.596 532.607 320.094 547.516H301.246C299.618 536.188 296.07 527.984 290.602 522.906C285.198 517.828 277.613 515.289 267.848 515.289C255.868 515.289 246.461 519.716 239.625 528.57C232.854 537.424 229.469 550.022 229.469 566.363V580.133C229.469 595.562 232.691 607.835 239.137 616.949C245.582 626.064 254.599 630.621 266.188 630.621C276.604 630.621 284.579 628.277 290.113 623.59C295.712 618.837 299.423 610.602 301.246 598.883H320.094ZM450.367 598.883C448.609 613.922 443.043 625.543 433.668 633.746C424.358 641.884 411.956 645.953 396.461 645.953C379.664 645.953 366.188 639.931 356.031 627.887C345.94 615.842 340.895 599.729 340.895 579.547V565.875C340.895 552.659 343.238 541.038 347.926 531.012C352.678 520.986 359.384 513.303 368.043 507.965C376.702 502.561 386.728 499.859 398.121 499.859C413.225 499.859 425.335 504.091 434.449 512.555C443.564 520.953 448.87 532.607 450.367 547.516H431.52C429.892 536.188 426.344 527.984 420.875 522.906C415.471 517.828 407.887 515.289 398.121 515.289C386.142 515.289 376.734 519.716 369.898 528.57C363.128 537.424 359.742 550.022 359.742 566.363V580.133C359.742 595.562 362.965 607.835 369.41 616.949C375.855 626.064 384.872 630.621 396.461 630.621C406.878 630.621 414.853 628.277 420.387 623.59C425.986 618.837 429.697 610.602 431.52 598.883H450.367Z" fill="black"/>
<circle cx="329" cy="273" r="27" fill="#C4C4C4"/>
<circle cx="329" cy="273" r="18" fill="#090808"/>
</svg>
