<svg width="50" height="50" viewBox="0 0 656 735" fill="none" xmlns="http://www.w3.org/2000/svg">
<path d="M23.584 325.588L24.9512 334.963L26.9531 326.516L41.0156 276.906H48.9258L62.6465 326.516L64.5996 335.109L66.1133 325.539L77.1484 276.906H86.5723L69.3359 348H60.791L46.1426 296.193L45.0195 290.773L43.8965 296.193L28.7109 348H20.166L2.97852 276.906H12.3535L23.584 325.588Z" fill="black"/>
<circle cx="295" cy="315" r="152" stroke="black" stroke-width="8"/>
<circle cx="296" cy="314" r="122" stroke="black" stroke-width="15"/>
<path d="M318.55 295.061L497.991 317.173L316.396 340.445L320.494 309.484L320.503 309.418L320.494 309.351L318.55 295.061ZM319.428 309.918L315.37 340.577L298.357 342.757V309.918H319.428ZM298.357 343.765L315.234 341.602L294.51 498.189L273.772 341.505L292.006 343.784V344.011V344.579L292.569 344.507L295.148 344.176L297.795 344.507L298.357 344.577V344.011V343.765ZM268.525 309.484L272.61 340.352L87.1104 317.173L270.457 295.144L268.525 309.351L268.516 309.418L268.525 309.484ZM273.636 340.48L269.591 309.918H292.006V342.776L273.636 340.48ZM293.006 342.901V309.918H297.357V342.885L295.147 343.168L293.006 342.901ZM319.426 308.918H298.357V292.573L317.524 294.935L319.426 308.918ZM297.357 292.449V308.918H293.006V292.434L295.147 292.177L297.357 292.449ZM317.385 293.91L298.357 291.565V291.348V290.784L297.797 290.851L295.148 291.17L292.567 290.852L292.006 290.782V291.348V291.547L271.623 293.996L294.51 125.71L317.385 293.91ZM271.483 295.02L292.006 292.554V308.918H269.593L271.483 295.02Z" fill="#0A0909" stroke="black"/>
<path d="M323.891 93H314.467L278.676 38.2148V93H269.252V21.9062H278.676L314.564 76.9355V21.9062H323.891V93Z" fill="black"/>
<path d="M568.438 318.139H537.627V343.334H573.418V351H528.252V279.906H572.93V287.621H537.627V310.473H568.438V318.139Z" fill="black"/>
<path d="M277.484 680.348C272.667 687.249 265.928 692.424 257.27 695.875C248.676 699.26 238.65 700.953 227.191 700.953C215.603 700.953 205.316 698.251 196.332 692.848C187.348 687.379 180.382 679.632 175.434 669.605C170.551 659.579 168.044 647.958 167.914 634.742V622.34C167.914 600.921 172.895 584.319 182.855 572.535C192.882 560.751 206.944 554.859 225.043 554.859C239.887 554.859 251.833 558.668 260.883 566.285C269.932 573.837 275.466 584.579 277.484 598.512H258.734C255.219 579.697 244.021 570.289 225.141 570.289C212.576 570.289 203.038 574.716 196.527 583.57C190.082 592.359 186.827 605.12 186.762 621.852V633.473C186.762 649.423 190.408 662.118 197.699 671.559C204.991 680.934 214.854 685.621 227.289 685.621C234.32 685.621 240.473 684.84 245.746 683.277C251.02 681.715 255.382 679.078 258.832 675.367V643.434H225.922V628.199H277.484V680.348ZM418.109 699H399.262V633.277H327.582V699H308.832V556.812H327.582V617.945H399.262V556.812H418.109V699Z" fill="black"/>
<circle cx="294" cy="315" r="27" fill="#C4C4C4"/>
<circle cx="294" cy="315" r="18" fill="#090808"/>
</svg>
