<svg width="50" height="50" viewBox="0 0 831 681" fill="none" xmlns="http://www.w3.org/2000/svg">
<circle cx="384" cy="273" r="152" stroke="black" stroke-width="8"/>
<circle cx="385" cy="272" r="122" stroke="black" stroke-width="15"/>
<path d="M407.55 253.061L586.991 275.173L405.396 298.445L409.494 267.484L409.503 267.418L409.494 267.351L407.55 253.061ZM408.428 267.918L404.37 298.577L387.357 300.757V267.918H408.428ZM387.357 301.765L404.234 299.602L383.51 456.189L362.772 299.505L381.006 301.784V302.011V302.579L381.569 302.507L384.148 302.176L386.795 302.507L387.357 302.577V302.011V301.765ZM357.525 267.484L361.61 298.352L176.11 275.173L359.457 253.144L357.525 267.351L357.516 267.418L357.525 267.484ZM362.636 298.48L358.591 267.918H381.006V300.776L362.636 298.48ZM382.006 300.901V267.918H386.357V300.885L384.147 301.168L382.006 300.901ZM408.426 266.918H387.357V250.573L406.524 252.935L408.426 266.918ZM386.357 250.449V266.918H382.006V250.434L384.147 250.177L386.357 250.449ZM406.385 251.91L387.357 249.565V249.348V248.784L386.797 248.851L384.148 249.17L381.567 248.852L381.006 248.782V249.348V249.547L360.623 251.996L383.51 83.7103L406.385 251.91ZM360.483 253.02L381.006 250.554V266.918H358.593L360.483 253.02Z" fill="#0A0909" stroke="black"/>
<path d="M327.632 56.084H305.293L300.276 70H293.025L313.387 16.6797H319.539L339.937 70H332.723L327.632 56.084ZM307.417 50.2979H325.545L316.463 25.3589L307.417 50.2979ZM367.623 70H360.811V24.8462L347.151 29.8633V23.7109L366.561 16.4233H367.623V70ZM409.737 70H402.925V24.8462L389.266 29.8633V23.7109L408.675 16.4233H409.737V70ZM443.245 60.0757L452.474 30.376H459.725L443.794 76.1157C441.329 82.7075 437.41 86.0034 432.039 86.0034L430.757 85.8936L428.23 85.4175V79.9243L430.062 80.0708C432.356 80.0708 434.139 79.6069 435.408 78.6792C436.702 77.7515 437.764 76.0547 438.594 73.5889L440.096 69.5605L425.96 30.376H433.357L443.245 60.0757Z" fill="black"/>
<path d="M42.3828 286.209C41.7676 291.473 39.8193 295.54 36.5381 298.411C33.2796 301.259 28.9388 302.684 23.5156 302.684C17.6367 302.684 12.9199 300.576 9.36523 296.36C5.83333 292.145 4.06738 286.505 4.06738 279.441V274.656C4.06738 270.031 4.8877 265.963 6.52832 262.454C8.19173 258.945 10.5387 256.256 13.5693 254.388C16.5999 252.496 20.109 251.551 24.0967 251.551C29.3831 251.551 33.6214 253.032 36.8115 255.994C40.0016 258.934 41.8587 263.012 42.3828 268.23H35.7861C35.2165 264.266 33.9746 261.395 32.0605 259.617C30.1693 257.84 27.5146 256.951 24.0967 256.951C19.904 256.951 16.6113 258.501 14.2188 261.6C11.849 264.699 10.6641 269.108 10.6641 274.827V279.646C10.6641 285.047 11.792 289.342 14.0479 292.532C16.3037 295.722 19.4596 297.317 23.5156 297.317C27.1615 297.317 29.9528 296.497 31.8896 294.856C33.8493 293.193 35.1481 290.311 35.7861 286.209H42.3828ZM66.0352 279.817C60.4069 278.2 56.3053 276.217 53.7305 273.87C51.1784 271.5 49.9023 268.584 49.9023 265.12C49.9023 261.201 51.4632 257.965 54.585 255.413C57.7295 252.838 61.8083 251.551 66.8213 251.551C70.2393 251.551 73.2812 252.212 75.9473 253.533C78.6361 254.855 80.7096 256.678 82.168 259.002C83.6491 261.326 84.3896 263.867 84.3896 266.624H77.793C77.793 263.616 76.8359 261.258 74.9219 259.549C73.0078 257.817 70.3076 256.951 66.8213 256.951C63.5856 256.951 61.0563 257.669 59.2334 259.104C57.4333 260.517 56.5332 262.488 56.5332 265.018C56.5332 267.046 57.3877 268.766 59.0967 270.179C60.8285 271.569 63.7565 272.845 67.8809 274.007C72.028 275.169 75.2637 276.456 77.5879 277.869C79.9349 279.259 81.6667 280.888 82.7832 282.757C83.9225 284.625 84.4922 286.824 84.4922 289.354C84.4922 293.387 82.9199 296.622 79.7754 299.061C76.6309 301.476 72.4268 302.684 67.1631 302.684C63.7451 302.684 60.555 302.034 57.5928 300.735C54.6305 299.414 52.3405 297.614 50.7227 295.335C49.1276 293.056 48.3301 290.47 48.3301 287.576H54.9268C54.9268 290.584 56.0319 292.965 58.2422 294.72C60.4753 296.451 63.4489 297.317 67.1631 297.317C70.6266 297.317 73.2812 296.611 75.127 295.198C76.9727 293.785 77.8955 291.86 77.8955 289.422C77.8955 286.984 77.041 285.104 75.332 283.782C73.623 282.438 70.5241 281.116 66.0352 279.817ZM107.598 279.817C101.969 278.2 97.8678 276.217 95.293 273.87C92.7409 271.5 91.4648 268.584 91.4648 265.12C91.4648 261.201 93.0257 257.965 96.1475 255.413C99.292 252.838 103.371 251.551 108.384 251.551C111.802 251.551 114.844 252.212 117.51 253.533C120.199 254.855 122.272 256.678 123.73 259.002C125.212 261.326 125.952 263.867 125.952 266.624H119.355C119.355 263.616 118.398 261.258 116.484 259.549C114.57 257.817 111.87 256.951 108.384 256.951C105.148 256.951 102.619 257.669 100.796 259.104C98.9958 260.517 98.0957 262.488 98.0957 265.018C98.0957 267.046 98.9502 268.766 100.659 270.179C102.391 271.569 105.319 272.845 109.443 274.007C113.59 275.169 116.826 276.456 119.15 277.869C121.497 279.259 123.229 280.888 124.346 282.757C125.485 284.625 126.055 286.824 126.055 289.354C126.055 293.387 124.482 296.622 121.338 299.061C118.193 301.476 113.989 302.684 108.726 302.684C105.308 302.684 102.118 302.034 99.1553 300.735C96.193 299.414 93.903 297.614 92.2852 295.335C90.6901 293.056 89.8926 290.47 89.8926 287.576H96.4893C96.4893 290.584 97.5944 292.965 99.8047 294.72C102.038 296.451 105.011 297.317 108.726 297.317C112.189 297.317 114.844 296.611 116.689 295.198C118.535 293.785 119.458 291.86 119.458 289.422C119.458 286.984 118.604 285.104 116.895 283.782C115.186 282.438 112.087 281.116 107.598 279.817Z" fill="black"/>
<path d="M648.168 306H641.1V281.354H614.22V306H607.189V252.68H614.22V275.604H641.1V252.68H648.168V306ZM696.398 258.466H679.259V306H672.265V258.466H655.163V252.68H696.398V258.466ZM713.39 252.68L730.822 296.186L748.253 252.68H757.372V306H750.341V285.236L751 262.824L733.495 306H728.112L710.644 262.934L711.339 285.236V306H704.308V252.68H713.39ZM776.854 300.25H802.123V306H769.787V252.68H776.854V300.25Z" fill="black"/>
<path d="M368.484 626.348C363.667 633.249 356.928 638.424 348.27 641.875C339.676 645.26 329.65 646.953 318.191 646.953C306.603 646.953 296.316 644.251 287.332 638.848C278.348 633.379 271.382 625.632 266.434 615.605C261.551 605.579 259.044 593.958 258.914 580.742V568.34C258.914 546.921 263.895 530.319 273.855 518.535C283.882 506.751 297.944 500.859 316.043 500.859C330.887 500.859 342.833 504.668 351.883 512.285C360.932 519.837 366.466 530.579 368.484 544.512H349.734C346.219 525.697 335.021 516.289 316.141 516.289C303.576 516.289 294.038 520.716 287.527 529.57C281.082 538.359 277.827 551.12 277.762 567.852V579.473C277.762 595.423 281.408 608.118 288.699 617.559C295.991 626.934 305.854 631.621 318.289 631.621C325.32 631.621 331.473 630.84 336.746 629.277C342.02 627.715 346.382 625.078 349.832 621.367V589.434H316.922V574.199H368.484V626.348ZM509.109 645H490.262V579.277H418.582V645H399.832V502.812H418.582V563.945H490.262V502.812H509.109V645Z" fill="black"/>
<circle cx="383" cy="273" r="27" fill="#C4C4C4"/>
<circle cx="383" cy="273" r="18" fill="#090808"/>
</svg>
