<svg width="50" height="50" viewBox="0 0 661 735" fill="none" xmlns="http://www.w3.org/2000/svg">
<circle cx="295" cy="315" r="152" stroke="black" stroke-width="8"/>
<circle cx="296" cy="314" r="122" stroke="black" stroke-width="15"/>
<path d="M318.55 295.061L497.991 317.173L316.396 340.445L320.494 309.484L320.503 309.418L320.494 309.351L318.55 295.061ZM319.428 309.918L315.37 340.577L298.357 342.757V309.918H319.428ZM298.357 343.765L315.234 341.602L294.51 498.189L273.772 341.505L292.006 343.784V344.011V344.579L292.569 344.507L295.148 344.176L297.795 344.507L298.357 344.577V344.011V343.765ZM268.525 309.484L272.61 340.352L87.1104 317.173L270.457 295.144L268.525 309.351L268.516 309.418L268.525 309.484ZM273.636 340.48L269.591 309.918H292.006V342.776L273.636 340.48ZM293.006 342.901V309.918H297.357V342.885L295.147 343.168L293.006 342.901ZM319.426 308.918H298.357V292.573L317.524 294.935L319.426 308.918ZM297.357 292.449V308.918H293.006V292.434L295.147 292.177L297.357 292.449ZM317.385 293.91L298.357 291.565V291.348V290.784L297.797 290.851L295.148 291.17L292.567 290.852L292.006 290.782V291.348V291.547L271.623 293.996L294.51 125.71L317.385 293.91ZM271.483 295.02L292.006 292.554V308.918H269.593L271.483 295.02Z" fill="#0A0909" stroke="black"/>
<path d="M323.891 93H314.467L278.676 38.2148V93H269.252V21.9062H278.676L314.564 76.9355V21.9062H323.891V93Z" fill="black"/>
<path d="M23.584 325.588L24.9512 334.963L26.9531 326.516L41.0156 276.906H48.9258L62.6465 326.516L64.5996 335.109L66.1133 325.539L77.1484 276.906H86.5723L69.3359 348H60.791L46.1426 296.193L45.0195 290.773L43.8965 296.193L28.7109 348H20.166L2.97852 276.906H12.3535L23.584 325.588Z" fill="black"/>
<path d="M568.438 318.139H537.627V343.334H573.418V351H528.252V279.906H572.93V287.621H537.627V310.473H568.438V318.139Z" fill="black"/>
<path d="M232.094 653.883C230.336 668.922 224.77 680.543 215.395 688.746C206.085 696.884 193.682 700.953 178.188 700.953C161.391 700.953 147.914 694.931 137.758 682.887C127.667 670.842 122.621 654.729 122.621 634.547V620.875C122.621 607.659 124.965 596.038 129.652 586.012C134.405 575.986 141.111 568.303 149.77 562.965C158.428 557.561 168.454 554.859 179.848 554.859C194.952 554.859 207.061 559.091 216.176 567.555C225.29 575.953 230.596 587.607 232.094 602.516H213.246C211.618 591.188 208.07 582.984 202.602 577.906C197.198 572.828 189.613 570.289 179.848 570.289C167.868 570.289 158.461 574.716 151.625 583.57C144.854 592.424 141.469 605.022 141.469 621.363V635.133C141.469 650.562 144.691 662.835 151.137 671.949C157.582 681.064 166.599 685.621 178.188 685.621C188.604 685.621 196.579 683.277 202.113 678.59C207.712 673.837 211.423 665.602 213.246 653.883H232.094ZM299.672 635.621C283.591 630.999 271.872 625.335 264.516 618.629C257.224 611.858 253.578 603.525 253.578 593.629C253.578 582.431 258.038 573.186 266.957 565.895C275.941 558.538 287.595 554.859 301.918 554.859C311.684 554.859 320.375 556.747 327.992 560.523C335.674 564.299 341.599 569.508 345.766 576.148C349.997 582.789 352.113 590.048 352.113 597.926H333.266C333.266 589.332 330.531 582.594 325.062 577.711C319.594 572.763 311.879 570.289 301.918 570.289C292.673 570.289 285.447 572.34 280.238 576.441C275.095 580.478 272.523 586.109 272.523 593.336C272.523 599.13 274.965 604.046 279.848 608.082C284.796 612.053 293.161 615.699 304.945 619.02C316.794 622.34 326.039 626.018 332.68 630.055C339.385 634.026 344.333 638.681 347.523 644.02C350.779 649.358 352.406 655.641 352.406 662.867C352.406 674.391 347.914 683.635 338.93 690.602C329.945 697.503 317.934 700.953 302.895 700.953C293.129 700.953 284.014 699.098 275.551 695.387C267.087 691.611 260.544 686.467 255.922 679.957C251.365 673.447 249.086 666.057 249.086 657.789H267.934C267.934 666.383 271.091 673.186 277.406 678.199C283.786 683.147 292.283 685.621 302.895 685.621C312.79 685.621 320.375 683.603 325.648 679.566C330.922 675.53 333.559 670.029 333.559 663.062C333.559 656.096 331.117 650.725 326.234 646.949C321.352 643.108 312.497 639.332 299.672 635.621ZM418.422 635.621C402.341 630.999 390.622 625.335 383.266 618.629C375.974 611.858 372.328 603.525 372.328 593.629C372.328 582.431 376.788 573.186 385.707 565.895C394.691 558.538 406.345 554.859 420.668 554.859C430.434 554.859 439.125 556.747 446.742 560.523C454.424 564.299 460.349 569.508 464.516 576.148C468.747 582.789 470.863 590.048 470.863 597.926H452.016C452.016 589.332 449.281 582.594 443.812 577.711C438.344 572.763 430.629 570.289 420.668 570.289C411.423 570.289 404.197 572.34 398.988 576.441C393.845 580.478 391.273 586.109 391.273 593.336C391.273 599.13 393.715 604.046 398.598 608.082C403.546 612.053 411.911 615.699 423.695 619.02C435.544 622.34 444.789 626.018 451.43 630.055C458.135 634.026 463.083 638.681 466.273 644.02C469.529 649.358 471.156 655.641 471.156 662.867C471.156 674.391 466.664 683.635 457.68 690.602C448.695 697.503 436.684 700.953 421.645 700.953C411.879 700.953 402.764 699.098 394.301 695.387C385.837 691.611 379.294 686.467 374.672 679.957C370.115 673.447 367.836 666.057 367.836 657.789H386.684C386.684 666.383 389.841 673.186 396.156 678.199C402.536 683.147 411.033 685.621 421.645 685.621C431.54 685.621 439.125 683.603 444.398 679.566C449.672 675.53 452.309 670.029 452.309 663.062C452.309 656.096 449.867 650.725 444.984 646.949C440.102 643.108 431.247 639.332 418.422 635.621Z" fill="black"/>
<circle cx="294" cy="315" r="27" fill="#C4C4C4"/>
<circle cx="294" cy="315" r="18" fill="#090808"/>
</svg>
