<svg width="50" height="50" viewBox="0 0 656 735" fill="none" xmlns="http://www.w3.org/2000/svg">
<circle cx="295" cy="315" r="152" stroke="black" stroke-width="8"/>
<circle cx="296" cy="314" r="122" stroke="black" stroke-width="15"/>
<path d="M318.55 295.061L497.991 317.173L316.396 340.445L320.494 309.484L320.503 309.418L320.494 309.351L318.55 295.061ZM319.428 309.918L315.37 340.577L298.357 342.757V309.918H319.428ZM298.357 343.765L315.234 341.602L294.51 498.189L273.772 341.505L292.006 343.784V344.011V344.579L292.569 344.507L295.148 344.176L297.795 344.507L298.357 344.577V344.011V343.765ZM268.525 309.484L272.61 340.352L87.1104 317.173L270.457 295.144L268.525 309.351L268.516 309.418L268.525 309.484ZM273.636 340.48L269.591 309.918H292.006V342.776L273.636 340.48ZM293.006 342.901V309.918H297.357V342.885L295.147 343.168L293.006 342.901ZM319.426 308.918H298.357V292.573L317.524 294.935L319.426 308.918ZM297.357 292.449V308.918H293.006V292.434L295.147 292.177L297.357 292.449ZM317.385 293.91L298.357 291.565V291.348V290.784L297.797 290.851L295.148 291.17L292.567 290.852L292.006 290.782V291.348V291.547L271.623 293.996L294.51 125.71L317.385 293.91ZM271.483 295.02L292.006 292.554V308.918H269.593L271.483 295.02Z" fill="#0A0909" stroke="black"/>
<path d="M323.891 93H314.467L278.676 38.2148V93H269.252V21.9062H278.676L314.564 76.9355V21.9062H323.891V93Z" fill="black"/>
<path d="M23.584 325.588L24.9512 334.963L26.9531 326.516L41.0156 276.906H48.9258L62.6465 326.516L64.5996 335.109L66.1133 325.539L77.1484 276.906H86.5723L69.3359 348H60.791L46.1426 296.193L45.0195 290.773L43.8965 296.193L28.7109 348H20.166L2.97852 276.906H12.3535L23.584 325.588Z" fill="black"/>
<path d="M568.438 318.139H537.627V343.334H573.418V351H528.252V279.906H572.93V287.621H537.627V310.473H568.438V318.139Z" fill="black"/>
<path d="M287.094 653.883C285.336 668.922 279.77 680.543 270.395 688.746C261.085 696.884 248.682 700.953 233.188 700.953C216.391 700.953 202.914 694.931 192.758 682.887C182.667 670.842 177.621 654.729 177.621 634.547V620.875C177.621 607.659 179.965 596.038 184.652 586.012C189.405 575.986 196.111 568.303 204.77 562.965C213.428 557.561 223.454 554.859 234.848 554.859C249.952 554.859 262.061 559.091 271.176 567.555C280.29 575.953 285.596 587.607 287.094 602.516H268.246C266.618 591.188 263.07 582.984 257.602 577.906C252.198 572.828 244.613 570.289 234.848 570.289C222.868 570.289 213.461 574.716 206.625 583.57C199.854 592.424 196.469 605.022 196.469 621.363V635.133C196.469 650.562 199.691 662.835 206.137 671.949C212.582 681.064 221.599 685.621 233.188 685.621C243.604 685.621 251.579 683.277 257.113 678.59C262.712 673.837 266.423 665.602 268.246 653.883H287.094ZM417.367 653.883C415.609 668.922 410.043 680.543 400.668 688.746C391.358 696.884 378.956 700.953 363.461 700.953C346.664 700.953 333.188 694.931 323.031 682.887C312.94 670.842 307.895 654.729 307.895 634.547V620.875C307.895 607.659 310.238 596.038 314.926 586.012C319.678 575.986 326.384 568.303 335.043 562.965C343.702 557.561 353.728 554.859 365.121 554.859C380.225 554.859 392.335 559.091 401.449 567.555C410.564 575.953 415.87 587.607 417.367 602.516H398.52C396.892 591.188 393.344 582.984 387.875 577.906C382.471 572.828 374.887 570.289 365.121 570.289C353.142 570.289 343.734 574.716 336.898 583.57C330.128 592.424 326.742 605.022 326.742 621.363V635.133C326.742 650.562 329.965 662.835 336.41 671.949C342.855 681.064 351.872 685.621 363.461 685.621C373.878 685.621 381.853 683.277 387.387 678.59C392.986 673.837 396.697 665.602 398.52 653.883H417.367Z" fill="black"/>
<circle cx="294" cy="315" r="27" fill="#C4C4C4"/>
<circle cx="294" cy="315" r="18" fill="#090808"/>
</svg>
