<svg width="50" height="50" viewBox="0 0 656 735" fill="none" xmlns="http://www.w3.org/2000/svg">
<circle cx="295" cy="315" r="152" stroke="black" stroke-width="8"/>
<circle cx="296" cy="314" r="122" stroke="black" stroke-width="15"/>
<path d="M318.55 295.061L497.991 317.173L316.396 340.445L320.494 309.484L320.503 309.418L320.494 309.351L318.55 295.061ZM319.428 309.918L315.37 340.577L298.357 342.757V309.918H319.428ZM298.357 343.765L315.234 341.602L294.51 498.189L273.772 341.505L292.006 343.784V344.011V344.579L292.569 344.507L295.148 344.176L297.795 344.507L298.357 344.577V344.011V343.765ZM268.525 309.484L272.61 340.352L87.1104 317.173L270.457 295.144L268.525 309.351L268.516 309.418L268.525 309.484ZM273.636 340.48L269.591 309.918H292.006V342.776L273.636 340.48ZM293.006 342.901V309.918H297.357V342.885L295.147 343.168L293.006 342.901ZM319.426 308.918H298.357V292.573L317.524 294.935L319.426 308.918ZM297.357 292.449V308.918H293.006V292.434L295.147 292.177L297.357 292.449ZM317.385 293.91L298.357 291.565V291.348V290.784L297.797 290.851L295.148 291.17L292.567 290.852L292.006 290.782V291.348V291.547L271.623 293.996L294.51 125.71L317.385 293.91ZM271.483 295.02L292.006 292.554V308.918H269.593L271.483 295.02Z" fill="#0A0909" stroke="black"/>
<path d="M323.891 93H314.467L278.676 38.2148V93H269.252V21.9062H278.676L314.564 76.9355V21.9062H323.891V93Z" fill="black"/>
<path d="M23.584 325.588L24.9512 334.963L26.9531 326.516L41.0156 276.906H48.9258L62.6465 326.516L64.5996 335.109L66.1133 325.539L77.1484 276.906H86.5723L69.3359 348H60.791L46.1426 296.193L45.0195 290.773L43.8965 296.193L28.7109 348H20.166L2.97852 276.906H12.3535L23.584 325.588Z" fill="black"/>
<path d="M568.438 318.139H537.627V343.334H573.418V351H528.252V279.906H572.93V287.621H537.627V310.473H568.438V318.139Z" fill="black"/>
<path d="M224.094 653.883C222.336 668.922 216.77 680.543 207.395 688.746C198.085 696.884 185.682 700.953 170.188 700.953C153.391 700.953 139.914 694.931 129.758 682.887C119.667 670.842 114.621 654.729 114.621 634.547V620.875C114.621 607.659 116.965 596.038 121.652 586.012C126.405 575.986 133.111 568.303 141.77 562.965C150.428 557.561 160.454 554.859 171.848 554.859C186.952 554.859 199.061 559.091 208.176 567.555C217.29 575.953 222.596 587.607 224.094 602.516H205.246C203.618 591.188 200.07 582.984 194.602 577.906C189.198 572.828 181.613 570.289 171.848 570.289C159.868 570.289 150.461 574.716 143.625 583.57C136.854 592.424 133.469 605.022 133.469 621.363V635.133C133.469 650.562 136.691 662.835 143.137 671.949C149.582 681.064 158.599 685.621 170.188 685.621C180.604 685.621 188.579 683.277 194.113 678.59C199.712 673.837 203.423 665.602 205.246 653.883H224.094ZM354.367 653.883C352.609 668.922 347.043 680.543 337.668 688.746C328.358 696.884 315.956 700.953 300.461 700.953C283.664 700.953 270.188 694.931 260.031 682.887C249.94 670.842 244.895 654.729 244.895 634.547V620.875C244.895 607.659 247.238 596.038 251.926 586.012C256.678 575.986 263.384 568.303 272.043 562.965C280.702 557.561 290.728 554.859 302.121 554.859C317.225 554.859 329.335 559.091 338.449 567.555C347.564 575.953 352.87 587.607 354.367 602.516H335.52C333.892 591.188 330.344 582.984 324.875 577.906C319.471 572.828 311.887 570.289 302.121 570.289C290.142 570.289 280.734 574.716 273.898 583.57C267.128 592.424 263.742 605.022 263.742 621.363V635.133C263.742 650.562 266.965 662.835 273.41 671.949C279.855 681.064 288.872 685.621 300.461 685.621C310.878 685.621 318.853 683.277 324.387 678.59C329.986 673.837 333.697 665.602 335.52 653.883H354.367ZM421.945 635.621C405.865 630.999 394.146 625.335 386.789 618.629C379.497 611.858 375.852 603.525 375.852 593.629C375.852 582.431 380.311 573.186 389.23 565.895C398.215 558.538 409.868 554.859 424.191 554.859C433.957 554.859 442.648 556.747 450.266 560.523C457.948 564.299 463.872 569.508 468.039 576.148C472.271 582.789 474.387 590.048 474.387 597.926H455.539C455.539 589.332 452.805 582.594 447.336 577.711C441.867 572.763 434.152 570.289 424.191 570.289C414.947 570.289 407.72 572.34 402.512 576.441C397.368 580.478 394.797 586.109 394.797 593.336C394.797 599.13 397.238 604.046 402.121 608.082C407.069 612.053 415.435 615.699 427.219 619.02C439.068 622.34 448.312 626.018 454.953 630.055C461.659 634.026 466.607 638.681 469.797 644.02C473.052 649.358 474.68 655.641 474.68 662.867C474.68 674.391 470.188 683.635 461.203 690.602C452.219 697.503 440.207 700.953 425.168 700.953C415.402 700.953 406.288 699.098 397.824 695.387C389.361 691.611 382.818 686.467 378.195 679.957C373.638 673.447 371.359 666.057 371.359 657.789H390.207C390.207 666.383 393.365 673.186 399.68 678.199C406.06 683.147 414.556 685.621 425.168 685.621C435.064 685.621 442.648 683.603 447.922 679.566C453.195 675.53 455.832 670.029 455.832 663.062C455.832 656.096 453.391 650.725 448.508 646.949C443.625 643.108 434.771 639.332 421.945 635.621Z" fill="black"/>
<circle cx="294" cy="315" r="27" fill="#C4C4C4"/>
<circle cx="294" cy="315" r="18" fill="#090808"/>
</svg>
