<svg width="50" height="50" viewBox="0 0 299 702" fill="none" xmlns="http://www.w3.org/2000/svg">
<path d="M129.484 647.348C124.667 654.249 117.928 659.424 109.27 662.875C100.676 666.26 90.6497 667.953 79.1914 667.953C67.6029 667.953 57.3164 665.251 48.332 659.848C39.3477 654.379 32.3815 646.632 27.4336 636.605C22.5508 626.579 20.0443 614.958 19.9141 601.742V589.34C19.9141 567.921 24.8945 551.319 34.8555 539.535C44.8815 527.751 58.944 521.859 77.043 521.859C91.8867 521.859 103.833 525.668 112.883 533.285C121.932 540.837 127.466 551.579 129.484 565.512H110.734C107.219 546.697 96.0208 537.289 77.1406 537.289C64.5755 537.289 55.0378 541.716 48.5273 550.57C42.082 559.359 38.8268 572.12 38.7617 588.852V600.473C38.7617 616.423 42.4076 629.118 49.6992 638.559C56.9909 647.934 66.8542 652.621 79.2891 652.621C86.3203 652.621 92.4727 651.84 97.7461 650.277C103.02 648.715 107.382 646.078 110.832 642.367V610.434H77.9219V595.199H129.484V647.348ZM270.109 666H251.262V600.277H179.582V666H160.832V523.812H179.582V584.945H251.262V523.812H270.109V666Z" fill="black"/>
<ellipse rx="39.8577" ry="41.0186" transform="matrix(-1 0 0 1 143.565 41.0186)" fill="#090808"/>
<ellipse rx="38.881" ry="104.11" transform="matrix(-0.981884 0.189482 0.180093 0.98365 177.243 204.714)" fill="#111111"/>
<ellipse rx="30.4342" ry="75.195" transform="matrix(-0.624895 -0.780709 -0.764325 0.644832 158.453 310.758)" fill="#111111"/>
<ellipse rx="24.0788" ry="76.3717" transform="matrix(-0.999809 -0.0195451 -0.0185437 0.999828 116.029 404.391)" fill="#111111"/>
<ellipse rx="24.1979" ry="76.0114" transform="matrix(-0.898881 0.438192 0.419777 0.907627 237.341 385.8)" fill="#111111"/>
<ellipse rx="22.1363" ry="96.0125" transform="matrix(-0.494462 -0.869199 -0.857643 0.514246 93.29 155.482)" fill="#111111"/>
<ellipse rx="17.3174" ry="14.6533" transform="matrix(-0.942263 0.334873 0.288229 0.957562 25.7906 201.166)" fill="#090808"/>
<rect width="14" height="267" transform="matrix(-1 0 0 1 26 209)" fill="#090808"/>
<rect width="66.813" height="73.6696" transform="matrix(-0.975769 0.218804 0.310065 0.950715 274.381 86.8671)" fill="#0F0F0F"/>
<ellipse rx="24.2642" ry="55.6165" transform="matrix(-0.983467 0.181089 0.258693 0.965959 260.749 189.387)" fill="#0A0909"/>
<rect width="27.8886" height="76.191" transform="matrix(-0.996219 -0.0868825 -0.125836 0.992051 296.079 152.513)" fill="#101010"/>
</svg>
