<svg width="50" height="50" viewBox="0 0 503 689" fill="none" xmlns="http://www.w3.org/2000/svg">
<path d="M112.02 584.891H52.4492L39.0703 622H19.7344L74.0312 479.812H90.4375L144.832 622H125.594L112.02 584.891ZM58.1133 569.461H106.453L82.2344 502.957L58.1133 569.461ZM218.66 622H200.496V501.59L164.07 514.969V498.562L215.828 479.129H218.66V622ZM330.965 622H312.801V501.59L276.375 514.969V498.562L328.133 479.129H330.965V622ZM420.32 595.535L444.93 516.336H464.266L421.785 638.309C415.21 655.887 404.76 664.676 390.438 664.676L387.02 664.383L380.281 663.113V648.465L385.164 648.855C391.284 648.855 396.036 647.618 399.422 645.145C402.872 642.671 405.704 638.146 407.918 631.57L411.922 620.828L374.227 516.336H393.953L420.32 595.535Z" fill="black"/>
<path d="M364.056 120.079L381.097 92.8328H392.132L369.671 128.087L392.669 163.927H381.536L364.056 136.192L346.478 163.927H335.394L358.44 128.087L335.931 92.8328H346.917L364.056 120.079Z" fill="black"/>
<rect x="0.689749" y="0.144923" width="37.0387" height="15.1393" transform="matrix(0.835615 -0.549316 0.543883 0.839161 73.1917 387.713)" fill="#0A0909" stroke="black"/>
<rect x="0.689749" y="0.144923" width="37.0387" height="15.1393" transform="matrix(0.835615 -0.549316 0.543883 0.839161 116.989 359.777)" fill="#0A0909" stroke="black"/>
<rect x="0.652123" y="0.26874" width="36.9979" height="15.1565" transform="matrix(0.922218 -0.386671 0.382028 0.924151 161.835 332.327)" fill="#0A0909" stroke="black"/>
<rect x="0.563958" y="0.425415" width="36.9631" height="15.1711" transform="matrix(0.990202 -0.139641 0.137713 0.990472 210.709 313.666)" fill="#0A0909" stroke="black"/>
<rect x="0.329869" y="0.627052" width="36.9817" height="15.1633" transform="matrix(0.954408 0.298504 -0.29467 0.955599 264.765 309.89)" fill="#0A0909" stroke="black"/>
<rect x="0.44341" y="0.551497" width="36.961" height="15.172" transform="matrix(0.994068 0.108762 -0.107249 0.994232 312.007 323.495)" fill="#0A0909" stroke="black"/>
<rect x="0.589444" y="0.388794" width="36.9688" height="15.1687" transform="matrix(0.979324 -0.202297 0.199563 0.979885 359.312 329.69)" fill="#0A0909" stroke="black"/>
<rect x="0.668513" y="0.224193" width="37.0116" height="15.1507" transform="matrix(0.893978 -0.448111 0.443049 0.896497 405.703 320.541)" fill="#0A0909" stroke="black"/>
<rect x="0.702391" y="-0.0561044" width="37.1145" height="15.1072" transform="matrix(0.645893 -0.763428 0.75889 0.651219 447.588 299.356)" fill="#0A0909" stroke="black"/>
<rect width="38.2124" height="16.0657" transform="matrix(0.237782 -0.971319 0.97053 0.24098 476.737 263.519)" fill="#0A0909"/>
<rect width="38.1976" height="16.072" transform="matrix(-0.332897 -0.942963 0.941464 -0.337113 487.869 217.625)" fill="#0A0909"/>
<rect width="38.093" height="16.1163" transform="matrix(-0.704826 -0.70938 0.704367 -0.709836 473.466 176.439)" fill="#0A0909"/>
<rect width="37.9913" height="16.1593" transform="matrix(-0.935441 -0.353482 0.349117 -0.937079 438.329 147.969)" fill="#0A0909"/>
<path d="M4 277.534L51.471 94.3951L97.3595 168.159M345.791 277.534L222.366 13L188.954 168.159M97.3595 168.159L165.401 277.534L188.954 168.159M97.3595 168.159L127.424 81.6772L188.954 168.159" stroke="black" stroke-width="8"/>
<path d="M31.8498 172.063L55.8436 214.821V172.063L99.8323 214.821V172.063M211.804 129.304V172.063L243.795 129.304L263.79 172.063V129.304L291.783 172.063" stroke="#2C2A2A" stroke-width="5"/>
<path d="M211.798 130.584L193.129 156.81" stroke="#2C2A2A" stroke-width="5"/>
<path d="M101.218 164.318L117.4 177.474L123.468 164.318L141.672 177.474V148.968L163.921 177.474L173.023 148.968" stroke="#2C2A2A" stroke-width="5"/>
</svg>
