<svg id="Layer_1" data-name="Layer 1" xmlns="http://www.w3.org/2000/svg" xmlns:xlink="http://www.w3.org/1999/xlink" viewBox="0 0 430 162"><defs><style>.cls-1{fill:none;}.cls-2{clip-path:url(#clip-path);}.cls-3{fill:#689286;}.cls-4{fill:#5d8378;}.cls-5{fill:#5b776d;}.cls-6{fill:#476058;}</style><clipPath id="clip-path"><rect class="cls-1" x="0.08" y="-0.02" width="429.98" height="162.19"/></clipPath></defs><g class="cls-2"><path class="cls-3" d="M430.87,93c-10.34-5.79-22.7-6.23-34.35-8.45-26.28-5-50.67-19.61-77.42-20.15,4,5,.93,12.55-2.89,17.77a82.38,82.38,0,0,1-41.06,29.67l-21.25-8.47c-.94.14.49,1.64,1,.85s36.52-13.9,35.88-14.62c-4.7-5.28-39.56-7.17-44.38-12.35C230.65,60.28,207.1,53.2,189,38.81c-1.74-1.38-5.72-1-4.53.88a78.58,78.58,0,0,0-27.68-20.63c2.38,13.57-7.63,25.88-17,36-8.1,8.81-16.41,17.77-26.93,23.48-5.85,3.18-12.72,5.29-19.17,3.64-5.06-1.3-9.27-4.74-13.29-8.08L63.06,59.71l-5.67-8.19C55.15,71.17,52.06,91,50.66,110.76a13.8,13.8,0,0,0-8.3-.73l166.37,21.39c.45-1.64-2.32-1.64-4-1.31s-3.2-2.73-1.54-2.32l-5.77-.13c70.36.59,140.87,1.18,210.9-5.64,5.59-.55,11.6-1.32,15.74-5.12C430.1,111.38,431.66,101.11,430.87,93Z"/><path class="cls-4" d="M432.12,86.85a29,29,0,0,0-14.36,15.72A462.13,462.13,0,0,1,319,64.92c-1.26,7-8.18,11.32-14.59,14.38a184.76,184.76,0,0,1-49.89,15.63c-13.63,2.22-27.8,3-40.33,8.79L160.36,64.51a140.85,140.85,0,0,0-2.64-45.27,136.89,136.89,0,0,1-46.85,52.6c-3.15,2.07-6.54,4.07-10.3,4.38A24.85,24.85,0,0,1,92,74.9L59.79,66a25.79,25.79,0,0,0-2.47-13.36c-6.4,5.36-13.23,10.19-20,15L-4.22,97a413.64,413.64,0,0,0,3,60.33c33.75-5.41,68-6.88,102.17-7.44,51.52-.84,103.05.37,154.56,1.58l179.42,4.22-7.12-.28,4.5-.54C432,131.64,432.47,110.05,432.12,86.85Z"/><path class="cls-3" d="M430.87,93c-10.34-5.79-22.7-6.23-34.35-8.45-26.28-5-50.67-19.61-77.42-20.15,4,5,.93,12.55-2.89,17.77a82.38,82.38,0,0,1-41.06,29.67l-21.25-8.47c-.94.14.49,1.64,1,.85s36.52-13.9,35.88-14.62c-4.7-5.28-39.56-7.17-44.38-12.35C230.65,60.28,207.1,53.2,189,38.81c-1.74-1.38-5.72-1-4.53.88a78.58,78.58,0,0,0-27.68-20.63c2.38,13.57-7.63,25.88-17,36-8.1,8.81-16.41,17.77-26.93,23.48-5.85,3.18-12.72,5.29-19.17,3.64-5.06-1.3-9.27-4.74-13.29-8.08L63.06,59.71l-5.67-8.19C55.15,71.17,52.06,91,50.66,110.76a13.8,13.8,0,0,0-8.3-.73l166.37,21.39c.45-1.64-2.32-1.64-4-1.31s-3.2-2.73-1.54-2.32l-5.77-.13c70.36.59,140.87,1.18,210.9-5.64,5.59-.55,11.6-1.32,15.74-5.12C430.1,111.38,431.66,101.11,430.87,93Z"/><path class="cls-4" d="M432.12,86.85a29,29,0,0,0-14.36,15.72A462.13,462.13,0,0,1,319,64.92c-1.26,7-8.18,11.32-14.59,14.38a184.76,184.76,0,0,1-49.89,15.63c-13.63,2.22-27.8,3-40.33,8.79L160.36,64.51a140.85,140.85,0,0,0-2.64-45.27,136.89,136.89,0,0,1-46.85,52.6c-3.15,2.07-6.54,4.07-10.3,4.38A24.85,24.85,0,0,1,92,74.9L59.79,66a25.79,25.79,0,0,0-2.47-13.36c-6.4,5.36-13.23,10.19-20,15L-4.22,97a413.64,413.64,0,0,0,3,60.33c33.75-5.41,68-6.88,102.17-7.44,51.52-.84,103.05.37,154.56,1.58l179.42,4.22-7.12-.28,4.5-.54C432,131.64,432.47,110.05,432.12,86.85Z"/><path class="cls-5" d="M-.24,125c10.35-5.79,22.7-6.23,34.35-8.45,26.29-5,50.67-19.62,77.43-20.15-4.05,5-.93,12.54,2.88,17.77a82.39,82.39,0,0,0,41.06,29.66l21.25-8.47c1,.15-.49,1.65-1,.85s-36.53-13.89-35.89-14.61c4.7-5.29,39.56-7.17,44.38-12.35,15.79-16.94,39.34-24,57.48-38.41,1.74-1.38,5.73-1,4.54.88A78.4,78.4,0,0,1,273.9,51.1c-2.39,13.57,7.63,25.88,17,36,8.1,8.8,16.4,17.77,26.92,23.48,5.86,3.18,12.72,5.29,19.17,3.64,5.07-1.3,9.27-4.74,13.29-8.08l17.34-14.42,5.67-8.18c2.23,19.65,5.32,39.51,6.72,59.24a13.81,13.81,0,0,1,8.3-.73L221.9,163.46c-.44-1.65,2.32-1.64,4-1.31s3.19-2.73,1.54-2.32l5.76-.13c-70.36.59-140.87,1.17-210.89-5.65-5.6-.54-11.6-1.31-15.75-5.11C.53,143.42-1,133.15-.24,125Z"/><path class="cls-6" d="M-1.48,118.89A29,29,0,0,1,12.88,134.6,461.47,461.47,0,0,0,111.64,97c1.25,7,8.17,11.33,14.58,14.39A184.87,184.87,0,0,0,176.11,127c13.63,2.22,27.8,3,40.34,8.79l53.82-39.21a141.21,141.21,0,0,1,2.64-45.28,137,137,0,0,0,46.85,52.61c3.16,2.07,6.55,4.06,10.31,4.38,2.9.24,5.78-.55,8.59-1.32L370.84,98a26,26,0,0,1,2.47-13.36c6.4,5.36,13.23,10.19,20.05,15L434.86,129a413.64,413.64,0,0,1-3,60.33c-33.74-5.41-68-6.89-102.16-7.44-51.52-.85-103,.37-154.57,1.58L-4.31,187.7l7.13-.28-4.5-.54C-1.33,163.68-1.84,142.09-1.48,118.89Z"/></g></svg>