<svg width="50" height="50" viewBox="0 0 681 782" fill="none" xmlns="http://www.w3.org/2000/svg">
<path d="M138.53 704.647H119.683V638.925H48.0029V704.647H29.2529V562.46H48.0029V623.593H119.683V562.46H138.53V704.647ZM267.144 577.89H221.44V704.647H202.788V577.89H157.183V562.46H267.144V577.89ZM312.456 562.46L358.94 678.475L405.425 562.46H429.741V704.647H410.991V649.276L412.749 589.511L366.069 704.647H351.714L305.132 589.804L306.987 649.276V704.647H288.237V562.46H312.456ZM481.694 689.315H549.077V704.647H462.847V562.46H481.694V689.315Z" fill="black"/>
<rect x="125.555" y="436.863" width="273.431" height="39.0261" fill="#0B0A0A"/>
<rect x="240" y="449" width="118" height="36" transform="rotate(-90 240 449)" fill="#0B0A0A"/>
<rect x="240" y="208" width="39" height="36" transform="rotate(-90 240 208)" fill="#0B0A0A"/>
<rect x="229.777" y="43.5648" width="29.5652" height="36.7845" transform="rotate(-90 229.777 43.5648)" fill="#0B0A0A"/>
<path d="M377.267 114.108L464.398 158.983L464.325 69.1207L377.267 114.108Z" fill="#FFFEFE"/>
<circle cx="248" cy="19" r="19" fill="#070707"/>
<path d="M401.365 114.249L465.453 154H91.2729L10.2186 109.87L91.3406 63H462.188L401.125 105.909L394.933 110.26L401.365 114.249Z" fill="#ACABAB" stroke="black" stroke-width="10"/>
<path d="M357.77 111.755L411.585 142.5H113.213L47.4453 109.518L113.245 74.5H408.613L357.652 107.485L354.204 109.717L357.77 111.755Z" fill="#C4C4C4" stroke="black" stroke-width="5"/>
<path d="M112.635 275.249L48.5472 315H422.727L503.781 270.87L422.659 224H51.8119L112.875 266.909L119.067 271.26L112.635 275.249Z" fill="#ACABAB" stroke="black" stroke-width="10"/>
<path d="M151.035 266.238L96.5234 235.5L398.862 235.5L465.498 268.482L398.831 303.5L99.5323 303.5L151.153 270.523L154.66 268.282L151.035 266.238Z" fill="#C4C4C4" stroke="black" stroke-width="5"/>
</svg>
