<svg id="Ground" xmlns="http://www.w3.org/2000/svg" xmlns:xlink="http://www.w3.org/1999/xlink" viewBox="0 0 1920 2160"><defs><style>.cls-1{fill:none;}.cls-2{clip-path:url(#clip-path);}.cls-3{fill:url(#radial-gradient);}.cls-4{fill:#5d8378;}.cls-5{fill:#476058;}.cls-6{fill:#abc19f;}.cls-7{fill:#9eb78f;}.cls-8{fill:#91ad7f;}.cls-9{clip-path:url(#clip-path-2);}.cls-10{fill:#fff;}.cls-11{fill:#f4f5f5;}.cls-12{fill:#e7e9e9;}</style><clipPath id="clip-path"><rect class="cls-1" x="-1939.49" y="2.27" width="1918.99" height="2155.45"/></clipPath><radialGradient id="radial-gradient" cx="-461.78" cy="1846.52" r="462.95" gradientUnits="userSpaceOnUse"><stop offset="0" stop-color="#fff"/><stop offset="0.22" stop-color="#d8e3df"/><stop offset="0.59" stop-color="#9cb7af"/><stop offset="0.86" stop-color="#769c91"/><stop offset="1" stop-color="#689286"/></radialGradient><clipPath id="clip-path-2"><rect class="cls-1" x="1.82" y="0.34" width="1918.99" height="2155.45"/></clipPath></defs><g class="cls-2"><path class="cls-3" d="M-326.84,2261.86c29.55-13.59,57.64-25.71,85-39.29,34.09-16.92,66.1-37.2,93.64-63.9,44.78-43.42,53.62-88.17,24.19-150.9-16.3-34.76-43.91-60.52-72.6-85-21.49-18.34-43.51-36.08-64.64-54.83-15.76-14-29.74-29.73-36.75-50.29-8.31-24.37-4.32-40.52,18.34-52.27,22.35-11.58,46.26-21.49,70.62-27.56,55.17-13.73,111.15-24.15,166.54-37,18.74-4.35,36.94-11.37,55-18.28,9.39-3.6,18.81-9.39,19.41-21.09.64-12.32-8.55-19.52-18.11-23.51-23.38-9.73-46.84-20.21-71.3-26.2-65-15.92-130.66-29.31-195.88-44.43A251.9,251.9,0,0,1-297.9,1552c-13.83-6.12-15.12-15.88-2.78-24.81a189.37,189.37,0,0,1,40-22c28.42-11.43,57.58-21,86.27-31.82a110.39,110.39,0,0,0,22.56-11.48c9.43-6.35,9.19-13.46-.06-20.23a51.89,51.89,0,0,0-12.77-6.8c-35.62-12.88-73-16.11-110.67-18.34,11.14,5.19,23.15,9.13,33.15,16,7.71,5.28,12.9,14.23,19.22,21.56-7.75,4.28-15.06,10.84-23.34,12.45-40,7.79-80.43,13.22-120.27,21.56-22.32,4.68-44.85,11.16-65.4,20.83-32.73,15.4-33.52,44.38-3.13,64.22,28.61,18.68,61.75,25.24,94.22,33.29,26.23,6.5,52.6,12.42,78.74,19.22a85.21,85.21,0,0,1,22.14,9.43c10.13,6.08,9.92,13.43-1.16,17a497.45,497.45,0,0,1-57.28,14.7c-68.89,13.38-138.17,24.87-206.75,39.63-27.71,6-54.16,18.12-80.85,28.33-8.13,3.11-15.32,8.88-22.66,13.84-28.11,19-28.84,46.2-22.4,75.56,5.18,23.61,17.94,42.92,33.57,60.78,12.49,14.28,24.91,28.53,29.18,48,5,22.72-1.41,40.55-20.68,53.68-30.07,20.5-87.43,57.53-122.25,64.59-168.26,34.1-254.14,106.61-243.29,127.33,3.31,6.31,156.89-38.66,334.23,61.39,188.72,65.93,300.13,22.73,298.77,22.64C-322.71,2262.54-323.86,2262.26-326.84,2261.86Z"/><path class="cls-4" d="M3.07,977a131.76,131.76,0,0,0-65.23,71.37,2098.56,2098.56,0,0,1-448.56-171c-5.71,31.76-37.14,51.43-66.26,65.34a840.33,840.33,0,0,1-226.59,71c-61.92,10.1-126.26,13.61-183.2,39.93l-244.47-178.09a640,640,0,0,0-12-205.65A621.76,621.76,0,0,1-1456,908.84c-14.32,9.41-29.73,18.47-46.8,19.89-13.2,1.1-26.28-2.47-39-6L-1688,882.29a117.63,117.63,0,0,0-11.21-60.71c-29.07,24.36-60.09,46.29-91.06,68.18L-1978.8,1023c-1.64,91.13,2,183.64,13.7,274,153.27-24.58,308.83-31.26,464-33.8,234-3.83,468.07,1.68,702.05,7.19L15.9,1289.57l-32.35-1.29L4,1285.83C2.38,1180.45,4.68,1082.41,3.07,977Z"/><path class="cls-4" d="M3.07,977a131.76,131.76,0,0,0-65.23,71.37,2098.56,2098.56,0,0,1-448.56-171c-5.71,31.76-37.14,51.43-66.26,65.34a840.33,840.33,0,0,1-226.59,71c-61.92,10.1-126.26,13.61-183.2,39.93l-244.47-178.09a640,640,0,0,0-12-205.65A621.76,621.76,0,0,1-1456,908.84c-14.32,9.41-29.73,18.47-46.8,19.89-13.2,1.1-26.28-2.47-39-6L-1688,882.29a117.63,117.63,0,0,0-11.21-60.71c-29.07,24.36-60.09,46.29-91.06,68.18L-1978.8,1023c-1.64,91.13,2,183.64,13.7,274,153.27-24.58,308.83-31.26,464-33.8,234-3.83,468.07,1.68,702.05,7.19L15.9,1289.57l-32.35-1.29L4,1285.83C2.38,1180.45,4.68,1082.41,3.07,977Z"/><path class="cls-5" d="M-1966.35,1122.54a131.73,131.73,0,0,1,65.23,71.37,2098.36,2098.36,0,0,0,448.56-171c5.72,31.76,37.14,51.43,66.26,65.34a840.33,840.33,0,0,0,226.59,71c61.92,10.09,126.26,13.6,183.21,39.92L-732,1021.08a640.05,640.05,0,0,1,12-205.66,621.68,621.68,0,0,0,212.78,238.94c14.32,9.41,29.73,18.46,46.81,19.88,13.19,1.1,26.27-2.46,39-6l146.18-40.45A117.54,117.54,0,0,1-264,967.09c29.07,24.37,60.09,46.29,91.07,68.19L15.52,1168.49c1.64,91.12-2,183.64-13.7,274-153.26-24.57-308.83-31.26-464-33.79-234-3.83-468.07,1.68-702,7.19l-814.91,19.18,32.34-1.29-20.43-2.45C-1965.65,1326-1968,1227.92-1966.35,1122.54Z"/><rect class="cls-6" x="-1970.76" y="1394.29" width="1985" height="1222.5"/><rect class="cls-7" x="-1970.76" y="1626.64" width="1985" height="1222.5"/><rect class="cls-8" x="-1970.76" y="1968.19" width="1985" height="1222.5"/></g><g class="cls-9"><rect class="cls-10" x="-4.03" y="-537.7" width="1985" height="1222.5"/><rect class="cls-11" x="-4.03" y="-712.45" width="1985" height="1222.5"/><rect class="cls-12" x="-4.03" y="-923.15" width="1985" height="1222.5"/></g></svg>