<svg width="50" height="50" viewBox="0 0 476 690" fill="none" xmlns="http://www.w3.org/2000/svg">
<path d="M272.094 608.883C270.336 623.922 264.77 635.543 255.395 643.746C246.085 651.884 233.682 655.953 218.188 655.953C201.391 655.953 187.914 649.931 177.758 637.887C167.667 625.842 162.621 609.729 162.621 589.547V575.875C162.621 562.659 164.965 551.038 169.652 541.012C174.405 530.986 181.111 523.303 189.77 517.965C198.428 512.561 208.454 509.859 219.848 509.859C234.952 509.859 247.061 514.091 256.176 522.555C265.29 530.953 270.596 542.607 272.094 557.516H253.246C251.618 546.188 248.07 537.984 242.602 532.906C237.198 527.828 229.613 525.289 219.848 525.289C207.868 525.289 198.461 529.716 191.625 538.57C184.854 547.424 181.469 560.022 181.469 576.363V590.133C181.469 605.562 184.691 617.835 191.137 626.949C197.582 636.064 206.599 640.621 218.188 640.621C228.604 640.621 236.579 638.277 242.113 633.59C247.712 628.837 251.423 620.602 253.246 608.883H272.094ZM402.367 608.883C400.609 623.922 395.043 635.543 385.668 643.746C376.358 651.884 363.956 655.953 348.461 655.953C331.664 655.953 318.188 649.931 308.031 637.887C297.94 625.842 292.895 609.729 292.895 589.547V575.875C292.895 562.659 295.238 551.038 299.926 541.012C304.678 530.986 311.384 523.303 320.043 517.965C328.702 512.561 338.728 509.859 350.121 509.859C365.225 509.859 377.335 514.091 386.449 522.555C395.564 530.953 400.87 542.607 402.367 557.516H383.52C381.892 546.188 378.344 537.984 372.875 532.906C367.471 527.828 359.887 525.289 350.121 525.289C338.142 525.289 328.734 529.716 321.898 538.57C315.128 547.424 311.742 560.022 311.742 576.363V590.133C311.742 605.562 314.965 617.835 321.41 626.949C327.855 636.064 336.872 640.621 348.461 640.621C358.878 640.621 366.853 638.277 372.387 633.59C377.986 628.837 381.697 620.602 383.52 608.883H402.367Z" fill="black"/>
<rect x="124" y="377" width="71" height="70" fill="#FFFDFD" stroke="black" stroke-width="10"/>
<path d="M159.366 0L273.729 200.832H45.0041L159.366 0Z" fill="#252424"/>
<path d="M159.366 37.4433L297.289 288.483H21.4445L159.366 37.4433Z" fill="#252424"/>
<path d="M160.5 87.3676L321 375H0L80.25 231.184L160.5 87.3676Z" fill="#252424"/>
<rect x="358.5" y="224.5" width="32" height="37" fill="#FFFDFD" stroke="black" stroke-width="7"/>
<path d="M373.953 76L429.174 154.191H318.731L373.953 76Z" fill="#323131"/>
<path d="M373.953 90.5779L440.551 188.316H307.355L373.953 90.5779Z" fill="#323131"/>
<path d="M374.5 110.015L452 222H297L335.75 166.008L374.5 110.015Z" fill="#323131"/>
<path d="M160.16 29L244.952 203.59H75.3675L160.16 29Z" fill="white"/>
<path d="M160.16 61.5507L262.42 279.788H57.8996L160.16 61.5507Z" fill="white"/>
<path d="M161 104.952L280 355H42L101.5 229.976L161 104.952Z" fill="white"/>
<rect x="408.5" y="406.5" width="22" height="32" fill="#FFFDFD" stroke="black" stroke-width="7"/>
<path d="M419.101 275L459.359 344.086H378.843L419.101 275Z" fill="#484848"/>
<path d="M419.101 287.88L467.653 374.238H370.549L419.101 287.88Z" fill="#484848"/>
<path d="M419.5 305.054L476 404H363L391.25 354.527L419.5 305.054Z" fill="#484848"/>
</svg>
